<svg viewBox="0 0 750 750" fill="none" xmlns="http://www.w3.org/2000/svg">

   <mask id="cutout-mask">
      <!-- Outer circle in white: this area will be visible -->
      <circle cx="375" cy="375" r="375" fill="white" />
      <!-- Inner circle in black: this area will be cut out -->
      <circle cx="375" cy="375" r="360" fill="black" />
   </mask>

   <circle cx="375" cy="375" r="375" fill="currentColor" mask="url(#cutout-mask)" />

   <path stroke="currentColor" stroke-width="20" fill="currentColor"
      d="m 365.33333,687.71474 c 0,-1.02612 3.33257,-3.04968 9.58334,-5.81907 16.42022,-7.27495 14.42967,-9.06597 -10.41667,-9.37251 -12.32529,-0.15206 -28.19002,-2.94662 -20,-3.52298 2,-0.14075 2,-0.14075 0,-1.07841 -1.43063,-0.67072 -0.69718,-0.78302 2.57638,-0.39448 13.41604,1.59238 10.29905,-7.49094 -3.22792,-9.40659 -7.22457,-1.02313 -11.69315,-2.95664 -16.49333,-7.13651 -1.72968,-1.50616 -5.32968,-3.51196 -8,-4.45734 -2.67032,-0.94538 -5.83386,-2.10063 -7.03009,-2.56723 -1.19623,-0.4666 -4.07181,-3.6859 -6.39018,-7.15399 -6.12007,-9.15515 -8.52285,-11.41185 -14.80892,-13.90862 -5.39493,-2.14282 -14.97236,-8.33038 -20.02027,-12.93424 -2.3025,-2.09996 -2.37157,-2.55728 -1.80092,-11.92416 C 269.93639,587.67075 269.40479,586 265.47431,586 c -3.14884,0 -6.09406,3.77702 -7.93947,10.18177 -1.86907,6.4869 -1.49214,6.30994 -15.73683,7.38813 -8.702,0.65866 -8.702,0.65866 -11.64669,-2.56537 -2.74895,-3.00972 -3.44846,-3.24579 -10.52319,-3.55146 -12.81073,-0.55349 -24.77176,-8.84534 -27.52874,-19.08397 -0.60719,-2.25493 -2.45445,-5.79922 -4.10503,-7.8762 -10.53534,-13.25701 -4.48783,-33.02004 8.25564,-26.9791 8.60698,4.08007 12.96609,7.23208 15.04389,10.87803 2.28457,4.00879 13.317,11.60817 16.8522,11.60817 5.26093,0 2.59921,-8.71418 -4.50333,-14.74339 C 221.63148,549.54927 221,548.0929 221,545.1616 c 0,-2.58163 -0.65946,-4.44843 -2,-5.6616 -5.19187,-4.69858 -0.51556,-5.88428 7.8493,-1.99023 14.15996,6.59181 22.60608,0.55796 16.11125,-11.50977 -4.78797,-8.89629 -4.23417,-13.44483 2.22273,-18.25569 4.36989,-3.25588 7.18314,-3.38731 15.65581,-0.73141 7.59587,2.38106 9.5418,2.46335 11.51805,0.4871 3.36726,-3.36725 12.64286,0.2617 12.64286,4.94635 0,3.22252 3.01504,5.94971 8.2775,7.48724 2.32238,0.67852 6.57818,2.54604 9.45735,4.15004 7.76535,4.32613 8.29545,3.40449 2.76515,-4.80753 -3.98333,-5.9149 -4.38821,-8.73038 -1.47933,-10.28716 2.73613,-1.46434 3.77925,-0.59828 4.57222,3.79614 1.68557,9.34091 9.56903,13.08903 16.75274,7.96492 4.49247,-3.20446 19.61406,-4.75675 31.65437,-3.24945 5.20842,0.65203 5.73856,0.50637 10,-2.7475 2.475,-1.88982 6.44535,-4.65875 8.823,-6.15317 2.37765,-1.49442 6.20265,-4.66383 8.5,-7.04313 6.42477,-6.65394 10.79199,-8.55574 19.66219,-8.56233 14.12877,-0.0105 19.71498,-3.3779 25.49172,-15.36662 1.88898,-3.92029 4.35444,-7.9109 5.4788,-8.86801 3.351,-2.85256 2.36478,-5.65299 -3.20571,-9.10281 -4.03654,-2.49985 -3.71667,-5.13933 0.5,-4.12579 7.64031,1.83647 13.75,0.48112 13.75,-3.05024 0,-2.93356 -0.2198,-2.88856 4.49245,-0.91966 4.73935,1.98023 12.62829,-1.40072 17.43788,-7.47332 2.68528,-3.39044 3.64549,-3.87888 8.79209,-4.47232 16.59597,-1.91364 23.28007,-4.48314 30.27758,-11.63931 3.575,-3.65605 7.98042,-7.23341 9.78983,-7.94967 9.33565,-3.69559 8.50051,-14.71901 -2.1162,-27.93263 -2.91395,-3.62672 -6.76219,-8.49617 -8.55164,-10.821 -1.78946,-2.32483 -4.46146,-4.80303 -5.93777,-5.50711 -2.15419,-1.02736 -2.74056,-2.06857 -2.96956,-5.27303 -1.41006,-19.73197 -3.86528,-27.49138 -13.46424,-42.55214 -7.25579,-11.38431 -8.12464,-11.93041 -19.04747,-11.97197 -6.93532,-0.0264 -8.82108,-0.41193 -12.20295,-2.49488 -2.2,-1.35501 -5.21997,-2.46597 -6.71104,-2.46879 C 441.10844,310.99628 435,300.8647 435,293.11037 c 0,-1.54803 -1.11998,-4.34365 -2.48884,-6.21249 -1.36886,-1.86883 -3.73136,-5.37737 -5.25,-7.79675 -4.86021,-7.74293 -7.18926,-10.17585 -6.55247,-6.84471 1.11929,5.85519 -3.35597,3.41628 -5.74274,-3.12965 -1.17782,-3.23028 -3.45846,-7.31514 -5.06809,-9.07746 -1.60964,-1.76232 -3.60332,-4.51285 -4.43042,-6.11228 -1.82407,-3.52736 -4.76357,-4.38036 -11.98557,-3.47803 -6.13447,0.76645 -6.68082,0.0685 -3.98803,-5.09469 C 392.29942,239.98485 390.11239,233 385.62244,233 c -0.75765,0 -1.93775,-0.675 -2.62244,-1.5 -0.88175,-1.06244 -3.21541,-1.5 -8,-1.5 -7.58012,0 -8.42739,-0.58318 -9.32581,-6.41908 -0.70688,-4.59176 -2.1001,-5.74969 -5.40582,-4.49286 -6.75507,2.56828 -7.40631,1.78722 -6.6677,-7.99692 0.71877,-9.52145 0.0337,-11.17461 -6.06777,-14.64229 -3.24903,-1.84654 0.45112,-9.70366 5.52392,-11.72983 1.08124,-0.43187 0.62584,-1.284 -1.81583,-3.39773 -1.79246,-1.55171 -3.25496,-3.51879 -3.25,-4.37129 0.013,-2.22945 -2.03035,-3.95 -4.69099,-3.95 -4.98831,0 -1.41335,-8.80481 6.78296,-16.70588 5.19771,-5.01048 5.19771,-5.01048 0.37924,-6.6523 -9.26814,-3.15797 -14.2051,-1.3296 -24.96886,9.24707 -11.18729,10.99284 -13.94918,24.51897 -7.99816,39.17032 1.83008,4.50563 1.82703,4.60551 -0.259,8.5 -5.65498,10.55745 -5.64563,10.5208 -5.59787,21.94079 0.0354,8.46295 0.52585,12.38385 2.12648,17 3.25412,9.38474 3.83942,21.76952 1.37461,29.0862 -2.09754,6.22645 -1.93668,11.15229 0.86039,26.34746 0.55012,2.98851 1.00021,8.25935 1.00021,11.71298 0,4.0298 0.75147,8.17336 2.09765,11.56634 3.6355,9.16306 1.50715,18.1378 -5.30881,22.38602 -2.35886,1.47022 -5.52789,4.14904 -7.04229,5.95293 -1.5144,1.80389 -5.73489,4.94711 -9.37885,6.98493 -8.92917,4.99348 -15.88675,11.85634 -17.26328,17.02827 -0.59507,2.23582 -2.19053,5.10659 -3.54546,6.37948 -1.49689,1.40626 -3.52746,5.6557 -5.1751,10.83012 -2.73354,8.58471 -11.17245,19.37521 -18.00828,23.02649 -5.94842,3.17727 -6.21903,13.03473 -0.4469,16.27885 4.85699,2.72979 5.06539,4.0759 1.07132,6.91993 -3.75524,2.67397 -4.4367,10.62168 -1.08993,12.71177 1.05054,0.65607 2.21301,2.57214 2.58327,4.25792 0.43491,1.98011 1.70382,3.59803 3.58474,4.57069 1.70469,0.88153 3.93849,3.53221 5.3891,6.39485 1.36266,2.68908 3.83999,5.85937 5.50519,7.0451 6.73419,4.79516 2.68973,28.02683 -4.87736,28.01593 C 261.79218,502.9915 256,499.50056 256,497.5147 c 0,-2.01563 -1.30461,-1.91011 -6,0.4853 -2.15618,1.1 -5.40075,2.01265 -7.21016,2.02812 -5.84877,0.05 -15.3474,5.95761 -14.98827,9.32188 0.21328,1.99791 -0.44551,3.51744 -2.25,5.18979 -1.40336,1.30059 -2.55157,3.27763 -2.55157,4.39341 0,1.3095 -0.79765,2.18144 -2.25,2.45956 -16.96339,3.2484 -18.84032,3.91672 -23.27322,8.28691 -5.47542,5.39796 -7.60797,5.44515 -14.47678,0.32033 -7.72083,-5.76051 -13.32164,-5.2017 -26.18539,2.61262 -7.34149,4.45972 -8.86106,7.1668 -6.22874,11.09642 2.47733,3.69824 2.45324,13.44657 -0.0451,18.23957 -1.42762,2.73889 -1.68021,4.84834 -1.22736,10.25 0.52172,6.22308 0.40809,6.80139 -1.33643,6.80139 -2.54203,0 -4.09162,-3.15117 -4.61134,-9.37741 -1.24641,-14.93165 -1.97405,-19.19961 -2.74876,-16.12259 -0.41542,1.65 -1.17417,4.03367 -1.68611,5.29705 -1.4444,3.56461 -1.112,7.66911 1.06923,13.20295 13.27597,33.68141 -27.42376,-17.52077 -48.090407,-60.5 C 17.772991,357.32239 80.500528,171.8978 232.95016,94.579614 249.74729,86.060582 286.15995,72 291.42455,72 c 0.34942,0 0.50935,2.3625 0.35538,5.25 -0.30845,5.784817 2.27322,6.484496 15.95289,4.323523 6.65077,-1.050619 8.32584,1.206674 3.66152,4.934182 -4.47296,3.574581 -2.77364,3.952765 20.43652,4.548143 28.34192,0.727016 29.50597,1.258382 25.53501,11.656192 -2.61129,6.83756 10.15056,18.8925 19.15933,18.09807 5.14464,-0.45368 4.43256,-2.01276 -2.06962,-4.53134 C 364.02037,112.23676 362.48628,108.52479 368.5,101.86832 373.999,95.781585 372.36426,84 366.0207,84 c -0.58861,0 -1.51632,-1.173385 -2.06158,-2.607523 -0.86283,-2.269424 -1.41069,-2.532534 -4.22525,-2.029186 C 349.28059,81.232728 349,81.243213 349,79.764394 c 0,-4.898481 14.23457,-10.583864 21.5,-8.587244 2.2,0.604585 5.125,1.1886 6.5,1.297812 3.35279,0.266302 20.17667,2.67469 21.75,3.113576 0.6875,0.191781 1.25,1.214671 1.25,2.273088 C 400,80.490162 401.83369,81 411.28753,81 c 6.23532,0 10.22655,0.67706 17.16821,2.912366 11.82428,3.807568 20.86188,5.582008 27.04426,5.309864 2.75,-0.121052 8.44926,-0.358667 12.66503,-0.528032 7.24386,-0.291016 7.88964,-0.51086 11.75288,-4.001067 10.95098,-9.893555 73.4894,25.624689 113.79276,64.627779 26.34654,25.49655 46.4249,52.83191 41.69153,56.76026 -2.27615,1.88904 -1.15552,7.39775 2.40692,11.83176 3.70604,4.61273 5.60382,8.33358 8.82893,17.31033 1.43789,4.00221 4.37089,10.78077 6.51778,15.06347 2.23437,4.45722 4.95891,12.25372 6.37188,18.23366 1.35765,5.74581 4.04431,14.2538 5.97036,18.90663 4.11061,9.93019 10.23267,34.02842 11.04267,43.46724 0.31178,3.63316 1.26346,10.65574 2.11483,15.60574 1.41683,8.23759 1.40453,10.18597 -0.14525,23 -2.55889,21.1577 -2.77929,25.86654 -1.62881,34.79832 2.78844,21.64803 -8.61626,46.69208 -18.35658,40.30997 -2.15191,-1.40999 -2.55222,-1.37466 -4.8431,0.42734 -1.90244,1.49647 -4.05092,1.96437 -9.01979,1.96437 -6.52184,0 -6.52289,4.7e-4 -10.34227,4.57168 -2.10087,2.51443 -5.69614,6.76377 -7.98948,9.44298 -2.29334,2.67921 -6.00078,8.39085 -8.23876,12.69253 -2.23798,4.30167 -6.71598,11.0688 -9.95112,15.03805 -3.23513,3.96926 -6.44978,8.68787 -7.14367,10.4858 -0.69388,1.79793 -2.62685,6.3243 -4.29548,10.0586 -2.96982,6.64629 -2.9987,6.86342 -1.36757,10.28393 3.19844,6.7072 0.21838,17.17232 -7.34207,25.78319 -3.13344,3.56879 -3.23457,3.94542 -2.53229,9.43025 0.40233,3.14214 1.04658,8.34167 1.43166,11.55449 0.54451,4.54291 1.24579,6.25614 3.15459,7.70669 2.45442,1.86518 2.45442,1.86518 0.20164,6.1585 -5.15988,9.83363 -2.72061,16.29904 4.59733,12.18542 7.95133,-4.46965 9.7424,-2.59081 3.58203,3.75757 -45.85399,47.25339 -110.02546,79.66021 -177.92658,89.85357 -19.21969,2.88527 -55.16667,4.00049 -55.16667,1.71149 z M 408,684.90228 c 57.88563,-5.97241 115.44423,-29.64424 161.04363,-66.23156 13.62272,-10.93039 26.47746,-23.12333 22.66943,-21.50235 -5.75162,2.4483 -8.93852,-10.31815 -4.33081,-17.34889 1.69172,-2.58134 1.68319,-2.75404 -0.23054,-4.66777 -1.29203,-1.29203 -2.22578,-4.0276 -2.66908,-7.81948 -0.37501,-3.20773 -1.07601,-7.63223 -1.55778,-9.83223 -1.52578,-6.96738 -1.09805,-9.02014 2.94204,-14.11937 8.1601,-10.29935 9.66263,-16.53036 6.05882,-25.12593 -1.25218,-2.98661 -1.14693,-3.66418 1.32026,-8.5 1.4745,-2.89009 3.80889,-7.86717 5.18754,-11.06018 1.37866,-3.19302 4.53213,-8.17634 7.00772,-11.07406 2.4756,-2.89771 6.71599,-9.27691 9.42311,-14.17599 10.57257,-19.13327 21.2363,-29.92031 28.80597,-29.13905 4.66469,0.48144 6.08823,0.24308 8.12732,-1.36087 3.03937,-2.39078 5.48628,-2.45986 8.85879,-0.2501 3.20299,2.09868 3.6327,1.62024 9.6053,-10.69445 4.57265,-9.42819 5.23951,-16.61792 3.33906,-36 -0.65423,-6.67235 -0.49623,-9.6826 0.73482,-14 2.07404,-7.27382 3.22979,-29.24549 1.81476,-34.5 -0.59245,-2.2 -1.53652,-8.725 -2.09792,-14.5 -1.21072,-12.45442 -6.70925,-34.30875 -11.44777,-45.5 -1.86301,-4.4 -4.39394,-12.5 -5.62429,-18 -1.37467,-6.1452 -3.86205,-13.27658 -6.45268,-18.5 -2.31863,-4.675 -5.46945,-11.98278 -7.00181,-16.2395 -1.53237,-4.25673 -4.75258,-10.53211 -7.15601,-13.94529 -4.73617,-6.72596 -6.04437,-14.18061 -2.94057,-16.75654 2.87293,-2.38433 -21.48998,-33.17752 -41.76533,-52.78877 -38.96814,-37.69176 -101.2256,-73.516161 -110.71781,-63.709615 -3.31472,3.424478 -3.71318,3.558724 -10.44617,3.519368 -3.85,-0.0225 -10.20451,0.210021 -14.12114,0.516723 -4.99514,0.391157 -8.70654,0.08683 -12.4315,-1.019368 C 441.02666,89.709653 437.35511,89 435.78837,89 434.22162,89 430.26685,87.875 427,86.5 422.25933,84.504679 419.3684,84 412.67936,84 c -9.38421,0 -14.2544,-1.266961 -14.93941,-3.886424 -0.49866,-1.906893 -19.05339,-5.697999 -22.12284,-4.520143 -0.83839,0.321721 -2.54535,-0.130187 -3.79324,-1.004242 -2.71941,-1.904756 -6.32091,-2.024072 -10.92465,-0.361929 -3.39922,1.227263 -3.39922,1.227263 0.0744,1.75 2.32365,0.349683 3.85931,1.298465 4.63867,2.86593 0.64078,1.288755 2.54228,3.180732 4.22556,4.204393 6.37609,3.877533 6.58717,14.791899 0.40956,21.176925 -4.46086,4.61063 -3.22422,6.73493 5.52649,9.49335 9.3925,2.96073 10.93597,8.60327 2.69153,9.8396 C 365.33961,125.52579 350.34132,109.97578 355.5851,99.835438 358.39329,94.404988 352.72156,93 327.99144,93 306.24565,93 302.46684,91.634847 307.75,85.687464 c 1.71077,-1.925859 1.67155,-1.956244 -1.75,-1.355549 -14.26458,2.504327 -17,1.811274 -17,-4.307164 0,-4.929902 0.062,-4.926627 -12.55352,-0.663741 -204.765249,69.1921 -279.5498713,319.64226 -145.91855,488.67432 9.01737,11.40619 9.19338,11.48893 6.31622,2.96919 C 133.85403,562.15029 137.02902,548 142.00581,548 c 2.07659,0 2.96168,2.72256 2.98054,9.16821 0.0222,7.6042 1.04895,8.83013 3.11977,3.72512 2.38762,-5.88597 2.34729,-11.63741 -0.10986,-15.6675 -7.69588,-12.6224 23.63411,-28.20979 36.13065,-17.97583 5.73634,4.69774 7.48428,4.69137 11.93917,-0.0435 C 199.51797,523.53771 212.21931,519 219.03669,519 220.33333,519 221,518.32087 221,517 c 0,-1.1 0.86919,-2.86919 1.93154,-3.93154 1.06234,-1.06234 2.07484,-3.41782 2.25,-5.2344 C 225.56175,503.89078 236.65368,497 242.62088,497 c 1.82464,0 5.11337,-0.93604 7.30828,-2.0801 4.45093,-2.31995 7.62568,-1.89783 8.59056,1.14222 1.05835,3.33457 6.25801,5.44901 8.47218,3.44521 4.39519,-3.97759 4.50706,-19.78347 0.16407,-23.18237 -1.711,-1.33905 -3.9816,-4.40301 -5.0458,-6.8088 -1.22689,-2.7736 -3.077,-4.96477 -5.05615,-5.98822 -2.09288,-1.08228 -3.31845,-2.60011 -3.71981,-4.60688 -0.32921,-1.64604 -1.51304,-3.63334 -2.63073,-4.4162 -3.46654,-2.42806 -3.66405,-11.6352 -0.32131,-14.97794 3.24287,-3.24287 3.24948,-3.14892 -0.35253,-5.01159 -6.12056,-3.16507 -4.99397,-15.89814 1.79646,-20.30417 8.09039,-5.24951 14.00081,-12.76927 17.06002,-21.70527 1.65426,-4.83212 4.08264,-9.96023 5.3964,-11.39579 1.31375,-1.43555 3.17351,-4.74409 4.13279,-7.3523 2.04518,-5.56068 8.92364,-12.06082 17.72931,-16.7542 3.17246,-1.6909 7.02524,-4.58833 8.56174,-6.43873 1.5365,-1.8504 4.49759,-4.36363 6.58019,-5.58496 6.4768,-3.79826 8.55691,-11.63212 5.21345,-19.63415 -0.825,-1.97451 -1.50298,-6.12255 -1.50663,-9.21788 C 314.98972,313.03254 314.09271,305.325 313,299 c -2.37908,-13.77102 -2.51661,-20.8278 -0.5,-25.65424 2.13018,-5.09824 1.94997,-17.71695 -0.34903,-24.43921 -5.15825,-15.08274 -4.63739,-32.26815 1.23483,-40.74176 3.13375,-4.52201 3.23954,-6.56826 0.63616,-12.30559 -5.70781,-12.57889 -2.26188,-27.38617 8.93313,-38.38588 11.69217,-11.48819 17.18003,-13.67623 27.04491,-10.78292 9.53967,2.79793 9.85163,4.59716 2.02334,11.66954 -3.63591,3.28484 -8.0095,9.13632 -8.0196,10.72954 -0.002,0.32422 1.14509,1.11293 2.54922,1.7527 1.40412,0.63976 3.01279,2.4823 3.57482,4.09453 0.56203,1.61223 2.1132,3.64639 3.44704,4.52036 3.37416,2.21083 3.32492,6.81195 -0.0895,8.36769 -3.09036,1.40806 -5.65561,6.28513 -3.65638,6.95154 5.94299,1.98099 8.52819,11.05302 5.87031,20.60018 -0.70477,2.53157 -0.58486,2.78309 1,2.09762 7.10201,-3.0717 11.3008,-1.12412 11.3008,5.24178 0,4.09125 3.33154,5.75456 9.63968,4.81273 3.36967,-0.5031 4.85772,-0.1563 8,1.86447 7.35,4.72672 7.62035,5.18223 7.18001,12.09772 -0.39936,6.27176 -0.39936,6.27176 4.14048,6.22254 6.50886,-0.0706 8.65257,0.90777 11.14934,5.08829 1.21484,2.0341 3.23356,4.82337 4.48603,6.19837 1.25247,1.375 2.74471,3.7375 3.31609,5.25 0.63606,1.68373 1.78293,2.75 2.95786,2.75 2.42623,0 6.82493,4.24328 10.39167,10.02451 1.51864,2.46152 3.85851,5.97096 5.19971,7.79875 1.34121,1.8278 2.72512,5.4278 3.07536,8 1.02469,7.52549 5.2433,15.17419 8.37729,15.18879 1.42256,0.007 4.54491,1.13162 6.93855,2.5 3.55541,2.03252 5.70259,2.48795 11.72977,2.48795 9.93873,0 14.88605,2.03665 17.52826,7.21581 1.11208,2.17987 3.5562,6.09893 5.43138,8.70904 6.60113,9.1883 9.3771,16.71556 10.56296,28.64233 1.47045,14.78907 1.50919,14.93575 4.27779,16.19721 2.24799,1.02425 10.72375,11.11058 18.29795,21.77493 7.42815,10.45871 6.67831,21.84156 -1.74295,26.45892 -2.50953,1.37597 -7.25577,5.26885 -10.5472,8.65086 -4.25296,4.36999 -7.12808,6.43957 -9.93723,7.15305 -11.90607,3.02396 -14.44211,3.5572 -19.65543,4.13281 -5.01877,0.55413 -6.15801,1.1196 -9.5,4.71542 -5.35297,5.75954 -11.5219,8.69713 -16.97353,8.08265 C 449.22459,454.3837 448,454.60801 448,455.52501 448,456.96904 442.92439,459 439.31559,459 c -2.04905,0 -2.23978,0.27313 -1.35077,1.93426 1.70813,3.19167 1.21285,7.82231 -1.06347,9.94302 -1.15426,1.07536 -3.17708,4.28285 -4.49514,7.12776 -6.26437,13.521 -10.20753,16.23133 -24.7797,17.03231 -12.00534,0.6599 -17.27569,2.72591 -20.84322,8.17064 -0.86952,1.32706 -5.46419,5.08565 -10.21037,8.35242 -14.86959,10.23466 -16.08535,10.62813 -24.73158,8.00409 -2.56226,-0.77762 -4.9157,-1.15681 -5.22987,-0.84264 -0.31417,0.31417 -4.12244,0.88345 -8.46282,1.26507 -5.75326,0.50584 -8.73675,1.29565 -11.01063,2.91479 -4.48769,3.19552 -8.89715,3.60071 -13.44519,1.23551 -2.28018,-1.18581 -3.35002,-1.42909 -2.66738,-0.60656 3.97582,4.79056 -2.71496,6.99257 -9.43759,3.10601 -2.24832,-1.29982 -6.37882,-3.11222 -9.17888,-4.02756 -6.15317,-2.01146 -9.28515,-4.73999 -10.0963,-8.79571 -0.76487,-3.82436 -5.81525,-6.4537 -8.06838,-4.20057 -1.98077,1.98078 -8.3565,1.71439 -16.23381,-0.67827 -12.40699,-3.76851 -18.89958,3.49982 -13.10672,14.67271 7.6039,14.66587 -3.10295,24.83495 -18.05908,17.15203 -4.65532,-2.39142 -4.65532,-2.39142 -3.75,-0.0103 0.49792,1.30963 0.90531,3.52459 0.90531,4.92213 0,1.5195 1.00529,3.33174 2.50071,4.50804 7.07969,5.56888 9.31087,14.98636 4.21461,17.78924 -3.71505,2.04322 -16.81209,-4.38143 -20.37924,-9.99689 C 206.97028,552.6731 196.39339,545 192.45557,545 c -8.58779,0 -9.81518,14.84175 -1.99589,24.13446 1.36787,1.62562 3.02754,4.84789 3.68815,7.16061 3.06494,10.73002 15.38629,19.08007 27.36105,18.54229 6.52726,-0.29313 6.82422,-0.20094 9.43804,2.92999 5.59641,6.70361 22.17565,4.2092 24.3651,-3.66582 3.65019,-13.12902 19.29703,-15.04945 17.14316,-2.10409 -1.39368,8.37647 -0.96637,15.28587 1.01734,16.44967 0.98707,0.57909 4.009,2.77018 6.71541,4.86909 2.7064,2.09891 7.93288,5.16766 11.6144,6.81944 8.23912,3.69665 9.24362,4.58469 15.28431,13.51225 4.58849,6.78135 5.20331,7.28806 11.98962,9.88125 3.93422,1.50335 8.65266,4.04997 10.48543,5.65917 3.55888,3.12474 12.73091,6.81169 16.94545,6.81169 8.14672,0 14.51233,7.83768 10.01679,12.33322 -1.30144,1.30143 0.14792,1.52971 12.25,1.92945 16.30653,0.53861 21.22607,1.74652 21.22607,5.21171 0,2.4271 -0.2551,2.58648 -15.49207,9.67881 -4.48994,2.08993 12.00178,1.96638 33.49207,-0.25091 z">
      <animate attributeName="stroke-dasharray" from="0, 1000" to="1000, 0" dur="1.5s" repeatCount="indefinite" />
   </path>
</svg>