<svg viewBox="0 0 750 750" fill="none" xmlns="http://www.w3.org/2000/svg">

	<mask id="cutout-mask">
		<!-- Outer circle in white: this area will be visible -->
		<circle cx="375" cy="375" r="375" fill="white" />
		<!-- Inner circle in black: this area will be cut out -->
		<circle cx="375" cy="375" r="313" fill="black" />
	</mask>

	<circle cx="375" cy="375" r="375" fill="currentColor" mask="url(#cutout-mask)" />

	<path
		d="M154.677 603.853C154.04 601.73 151.243 600.964 149.86 599.357C147.66 596.801 144.245 593.826 142.795 590.793C140.799 586.621 143.245 580.908 141.724 576.128C140.181 571.278 136.088 564.514 139.048 559.536C140.667 556.812 139.659 553.114 141.617 550.597C141.839 550.312 142.112 557.507 141.938 559C141.594 561.964 143.601 564.21 143.33 567.136C142.97 571.023 142.892 574.921 145.524 578.108C148.852 582.137 150.378 580.815 149.913 576.395C149.38 571.332 147.656 566.673 150.609 561.998C153.465 557.476 154.106 546.881 150.074 543.05C145.746 538.939 154.607 533.863 158.637 531.596C163.599 528.806 174.554 523.139 179.833 527.475C182.968 530.05 189.383 537.054 194.391 532.881C197.998 529.876 199.879 525.363 204.989 524.852C210.057 524.346 213.865 521.962 219.226 521.962C226.078 521.962 221.403 518.142 225.06 514.79C226.175 513.768 227.973 513.402 228.218 511.686C228.619 508.877 225.706 507.254 228.86 505.584C232.649 503.578 236.635 501.696 240.421 499.804"
		stroke="currentColor" stroke-width="3" stroke-linecap="round" />
	<path
		d="M240.421 499.804C242.187 499.804 243.954 499.804 245.72 499.804C249.305 499.804 250.967 496.46 254.284 496.11C257.021 495.822 255.554 500.104 257.763 500.767C260.342 501.541 262.441 503.657 265.256 503.657C274.724 503.657 273.178 481.892 273.178 475.718"
		stroke="currentColor" stroke-width="3" stroke-linecap="round" />
	<path
		d="M273.178 476.681C271.097 475.58 267.116 473.932 266.219 471.65C264.274 466.698 263.113 462.696 257.763 460.785C254.823 459.735 256.345 456.448 254.873 454.202C252.989 451.327 251.019 453.503 251.019 448.956C251.019 446.751 250.151 442.986 252.089 441.463C253.84 440.087 259.345 438.014 256.639 435.308C254.486 433.155 251.125 432.338 248.771 430.437C246.725 428.785 249.6 425.092 249.948 423.265C250.526 420.234 251.097 417.409 254.444 416.2C258.336 414.795 259.011 411.023 262.152 408.493C264.625 406.5 266.428 406.756 267.879 403.408C269.968 398.587 271.714 394.72 272.749 389.545C273.904 383.775 278.852 381.514 280.885 377.449"
		stroke="currentColor" stroke-width="3" stroke-linecap="round" />
	<path
		d="M279.921 378.412C280.699 370.637 285.366 368.312 291.054 363.533C294.49 360.647 298.944 359.143 302.722 356.789C305.777 354.886 306.883 352.028 309.359 349.67C311.17 347.946 313.777 347.147 315.889 345.87C319.992 343.39 321.236 335 321.081 330.723C320.932 326.64 318.328 323.79 317.709 319.965C317.055 315.92 317.956 311.75 317.334 307.708C316.035 299.265 314.051 291.323 313.695 282.606C313.538 278.772 313.922 276.465 315.782 273.185C318.114 269.074 317.104 265.408 316.639 260.982C316.338 258.123 316.82 255.211 316.371 252.365C315.796 248.727 313.399 245.8 312.892 242.035C312.326 237.841 311.621 233.785 310.912 229.617C310.248 225.721 311.894 222.749 312.464 219.02C312.804 216.792 312.544 214.136 313.855 212.169C315.559 209.614 317.372 208.66 318.351 205.371C320.6 197.82 316.039 197.072 315.193 190.813C314.53 185.907 315.182 180.548 314.819 175.559C314.373 169.435 322.314 161.491 326.487 157.789C331.993 152.905 336.398 148.155 344.257 148.155C348.251 148.155 351.226 151.045 355.068 151.045"
		stroke="currentColor" stroke-width="3" stroke-linecap="round" />
	<path
		d="M354.105 152.009C351.45 156.787 345.567 158.167 343.561 163.516C342.635 165.984 340.491 168.929 340.778 171.652C341.104 174.753 345.438 171.973 346.772 173.9C349.053 177.195 346.141 179.548 351.161 181.286C354.16 182.324 355.143 184.76 351.268 185.728C347.678 186.626 343.394 196.23 347.896 197.289C354.106 198.75 354.105 203.219 354.105 208.85C354.105 212.026 349.151 222.825 356.995 220.411C358.855 219.839 364.05 216.93 364.917 219.876C365.642 222.343 365.534 224.642 365.666 227.155C365.911 231.81 379.092 230.046 382.044 230.046"
		stroke="currentColor" stroke-width="3" stroke-linecap="round" />
	<path
		d="M609.411 584.585C606.708 584.885 603.909 588.279 600.955 589.188C597.441 590.269 596.282 591.683 593.033 593.469C588.728 595.837 588.216 595.031 588.216 590.365C588.216 587.679 587.927 584.506 589.394 582.122C590.461 580.389 591.712 579.006 592.016 576.877C592.352 574.53 590.196 574.201 588.805 572.916C586.952 571.206 587.253 567.525 587.253 565.263C587.253 560.258 582.213 550.052 586.878 546.369C590.859 543.226 594.416 535.983 596.298 531.382C597.283 528.975 597.338 524.777 596.726 522.23C596.17 519.91 592.532 515.929 594.211 514.041C599.143 508.492 599.271 499.65 604.059 493.809C608.883 487.924 613.147 483.766 616.584 476.788C619.334 471.205 621.983 465.238 626.753 461.053C631.204 457.147 633.265 449.836 638.849 447.297C642.191 445.778 645.559 447.779 648.912 447.779C652.234 447.779 655.229 441.679 657.583 444.032C667.306 453.755 669.796 435.565 674.924 430.437"
		stroke="currentColor" stroke-width="3" stroke-linecap="round" />
	<path
		d="M673.961 430.437C677.701 425.762 677.814 415.838 677.814 410.152C677.814 404.939 676.003 400.205 675.888 395.005C675.76 389.279 675.186 387.595 677.279 382.266C679.181 377.426 678.4 372.843 678.992 367.815C679.713 361.683 680.778 354.782 679.26 348.707C677.728 342.582 676.958 337.615 676.851 331.205C676.732 324.061 674.371 318.381 673.051 311.562C671.971 305.98 670.263 300.715 668.769 295.237C667.066 288.994 663.053 283.287 661.65 277.039C660.323 271.128 659.009 265.265 657.475 259.323C655.916 253.279 651.654 248.141 649.34 242.356C646.048 234.127 644.323 224.972 638.1 218.27C634.304 214.182 631.707 206.236 638.314 204.033"
		stroke="currentColor" stroke-width="3" stroke-linecap="round" />
	<path
		d="M280.885 678.036C285.323 678.036 289.789 674.183 294.801 674.183C297.248 674.183 300.269 676.383 302.08 673.969C303.4 672.209 308.497 668.113 308.824 672.47C309.169 677.069 312.81 675.762 316.424 676.163C319.945 676.554 320.644 681.185 322.794 683.335C327.304 687.846 338.456 688.83 344.364 687.189C347.708 686.26 351.194 684.734 354.533 684.031C357.639 683.377 360.299 685.386 363.097 686.279C365.67 687.1 367.071 684.838 369.198 684.031C373.522 682.391 377.636 680.536 381.884 678.625C383.792 677.766 389.135 675.467 387.075 675.093C382.271 674.219 376.504 671.914 371.661 672.47C367.194 672.983 363.02 673.219 358.494 673.219C350.707 673.219 328.658 665.697 336.442 665.512C339.604 665.437 355.068 670.181 355.068 665.512C355.068 656.092 342.766 660.119 336.656 656.734C333.797 655.15 329.418 653.829 327.504 651.489C324.553 647.882 319.448 646.306 315.086 645.28C305.716 643.075 304.02 628.902 295.604 624.941C292.345 623.408 288.992 622.208 285.702 620.766C281.32 618.846 278.74 614.92 274.676 612.738C271.242 610.893 269.836 611.17 269.11 606.957C268.598 603.991 268.278 601.328 268.36 598.287C268.452 594.881 272.904 588.735 267.879 586.618C262.301 584.27 258.878 590.389 257.816 595.343C256.86 599.807 256.905 602.89 251.768 602.89C247.812 602.89 244.03 603.716 240.207 603.853C237.82 603.938 235.1 604.134 232.714 603.853C231.492 603.709 228.087 598.167 225.97 597.109"
		stroke="currentColor" stroke-width="3" stroke-linecap="round" />
	<path
		d="M226.933 598.072C221.282 597.719 213.317 598.357 208.307 595.396C205.557 593.771 203.11 591.924 200.172 590.579C197.019 589.136 197.901 588.395 195.997 586.083C194.154 583.845 192.567 583.599 192.304 580.303C191.99 576.384 190.072 572.333 187.165 569.598C183.427 566.08 179.833 552.805 183.044 548.189C185.204 545.083 189.821 541.982 193.642 542.194C196.812 542.37 198.698 544.786 201.242 546.369C203.708 547.903 207.119 548.487 209.11 550.651C211.577 553.332 211.752 556.991 214.944 559C217.403 560.548 219.997 562.512 222.598 563.764C223.771 564.329 227.148 566.325 228.485 566.119C231.865 565.599 231.956 562.017 230.359 559.857C228.582 557.453 226.922 553.918 224.578 552.042C223.031 550.804 221.216 550.789 221.153 548.51C221.077 545.783 221.404 542.953 219.975 540.481C219.63 539.884 215.493 536.042 215.586 535.878C218.205 531.295 228.513 538.878 231.269 539.678C236.238 541.121 246.551 540.047 245.559 532.667C244.709 526.338 239.458 523.689 239.458 516.717C239.458 508.868 242.833 510.665 247.112 506.119C253.129 499.726 271.348 515.792 274.141 504.621"
		stroke="currentColor" stroke-width="3" stroke-linecap="round" />
	<path d="M276.068 505.584C278.443 505.8 281.039 507.292 282.812 508.474" stroke="currentColor" stroke-width="3"
		stroke-linecap="round" />
	<path
		d="M284.739 510.401C284.739 519.756 291.783 518.689 299.029 521.748C301.869 522.947 312.326 531.127 307.861 523.033C305.973 519.612 303.933 516.502 301.224 513.72C299.894 512.354 307.594 501.952 308.771 512.542C309.305 517.351 309.169 518.475 313.748 521.32C316.223 522.857 319.208 523.451 322.098 522.712C324.63 522.064 325.756 519.411 328.253 518.537C331.925 517.252 335.293 516.862 339.118 517.627C342.637 518.331 343.805 515.698 347.04 515.646C350.911 515.585 354.336 517.918 357.959 518.109C365.338 518.497 367.788 512.712 373.373 509.919C377.023 508.095 379.812 505.847 382.954 503.229C384.179 502.208 386.376 498.354 387.45 497.877C391.454 496.097 392.466 493.823 397.245 492.845C404.286 491.405 413.377 494.312 419.51 490.223C425.11 486.49 429.199 479.828 431.179 473.577C432.279 470.101 435.292 469.816 436.37 466.94C437.947 462.736 433.747 460.945 430.697 459.34C429.053 458.475 427.279 457.154 428.502 454.951C429.387 453.358 434.806 456.389 436.21 456.45C438.079 456.531 450.198 455.938 444.131 451.525C441.28 449.452 443.461 448.136 446.058 449.384C450.525 451.532 453.323 453.851 458.368 451.204C461.095 449.774 464.036 448.069 466.397 446.066C468.366 444.395 468.389 441.789 470.679 440.071"
		stroke="currentColor" stroke-width="3" stroke-linecap="round" />
	<path
		d="M469.715 440.071C473.451 440.071 476.937 439.108 480.741 439.108C485.301 439.108 488.377 436.218 493.373 436.218C498.539 436.218 506.235 430.717 508.68 426.048C511.527 420.614 515.184 421.17 519.813 418.341C524.846 415.266 522.942 406.354 521.312 401.695C519.693 397.068 515.092 393.307 512.106 389.492C509.053 385.59 505.602 379.803 501.99 376.593C500.872 375.599 499.242 376.073 498.19 375.308C496.294 373.929 496.691 369.772 496.691 367.815C496.691 362.462 494.958 357.392 494.764 351.972C494.587 347.01 491.247 340.039 488.663 335.701C486.018 331.261 482.011 327.101 480.099 322.32C477.15 314.947 468.988 315.79 462.436 315.79C460.673 315.79 458.19 316.517 456.549 315.897C453.743 314.837 451.569 312.449 448.734 311.401C445.988 310.386 443.043 312.041 441.134 309.26C438.647 305.638 435.879 300.947 435.246 296.522C434.698 292.684 435.037 289.856 432.57 286.566C431.255 284.813 429.504 283.484 428.288 281.642C425.122 276.845 424.199 272.318 418.654 269.546"
		stroke="currentColor" stroke-width="3" stroke-linecap="round" />
	<path
		d="M421.544 273.4C421.068 278.163 417.291 275.448 416.085 272.757C414.315 268.809 413.048 262.116 409.502 259.751C405.705 257.22 406.042 250.5 399.921 250.277C394.594 250.084 391.77 250.249 387.343 252.632C382.682 255.142 385.267 253.965 386.326 251.241C387.498 248.227 390.544 244.852 390.715 241.607C391.191 232.57 385.968 233.935 380.117 231.009"
		stroke="currentColor" stroke-width="3" stroke-linecap="round" />
	<path
		d="M381.081 120.216C378.673 120.456 376.362 121.683 373.855 121.125C370.867 120.462 368.508 118.117 365.719 116.897C361.785 115.176 360.458 110.605 356.995 108.44C354.61 106.95 358.592 101.137 359.136 99.0203C360.081 95.3456 360.425 93.7873 356.513 92.7581C352.631 91.7365 349.03 90.3495 344.952 90.3495C338.119 90.3495 331.286 90.3495 324.453 90.3495C319.813 90.3495 300.904 92.0411 312.196 85.9606C314.352 84.7998 316.981 82.2447 313.427 81.4647C308.997 80.4922 305.526 81.4481 301.117 82.4281C299.753 82.7312 292.135 83.501 291.59 81.9999C290.579 79.2215 291.783 74.1203 294.426 72.6333C300.791 69.0532 305.211 66.264 312.678 66.264"
		stroke="currentColor" stroke-width="3" stroke-linecap="round" />
	<path
		d="M484.167 81.6787C480.081 81.6787 478.544 88.2534 475.496 88.4227C473.639 88.5258 463.99 87.0301 463.186 87.6734C460.184 90.0745 456.644 89.3861 452.588 89.3861C446.992 89.3861 443.4 86.4958 437.869 86.4958C430.191 86.4958 424.637 80.7153 417.262 80.7153C414.666 80.7153 400.349 81.9186 400.349 79.2702C400.349 72.6622 394.989 75.8796 390.126 74.3996C385.595 73.0205 380.198 73.7038 376.264 71.0811"
		stroke="currentColor" stroke-width="3" stroke-linecap="round" />
	<path
		d="M380.117 118.289C376.841 117.353 365.887 114.087 364.81 110.046C363.008 103.291 366.808 104.832 370.43 100.305C372.802 97.3393 372.53 87.2209 368.984 85.5324C367.289 84.7252 364.151 84.3798 363.793 82.0534C363.34 79.111 363.464 78.7885 360.367 78.7885C356.73 78.7885 354.542 81.6788 350.465 81.6788C345.239 81.6788 346.532 80.4662 349.502 77.611C355.312 72.0245 368.13 66.8009 374.337 73.008"
		stroke="currentColor" stroke-width="3" stroke-linecap="round" />
	<path d="M341.62 435.457L361.277 404.711" stroke="currentColor" stroke-width="20" stroke-linecap="round" />
	<path
		d="M290.209 442.009C292.344 438.273 293.892 434.56 296.761 431.2C304.571 422.056 315.019 415.639 324.595 408.575C333.21 402.22 341.317 395.102 346.94 385.838C351.824 377.791 351.726 368.792 352.764 359.741C353.105 356.776 354.143 348.632 354.78 345.46C355.103 343.855 356.11 339.869 357.132 341.148C358.725 343.138 360.221 351.942 360.381 352.964C361.299 358.858 361.987 367.809 362.285 373.741C362.709 382.186 363.486 391.179 359.317 398.887C356.331 404.407 352.025 409.752 346.212 412.355C336.277 416.805 327.961 423.747 319.359 430.444C313.047 435.358 307.079 441.301 306.226 449.709C305.594 455.934 321.532 452.872 323.587 452.678C324.717 452.571 347.829 451.137 344.644 445.145C342.564 441.233 335.583 437.739 331.287 437.781C328.138 437.811 325.912 440.935 323.979 443.017"
		stroke="currentColor" stroke-width="20" stroke-linecap="round" />
	<path
		d="M305.834 460.658C300.832 468.161 302.427 479.601 310.482 484.123C322.616 490.935 335.908 486.288 346.912 479.699C353.837 475.552 360.475 471.034 367.661 467.322C374.99 463.538 382.793 460.684 389.95 456.57C395.253 453.522 398.594 450.121 402.159 445.285C407.556 437.965 414.609 431.926 422.88 428.064C438.03 420.991 454.472 416.165 466.17 403.423C470.615 398.581 472.495 392.387 471.882 385.782C470.008 365.556 453.961 353.176 438.113 343.024C429.068 337.23 419.316 330.791 408.655 328.463C399.056 326.367 388.434 326.315 378.666 326.839C373.466 327.118 364.96 327.371 361.641 332.411C358.652 336.95 358.934 344.547 358.253 349.772"
		stroke="currentColor" stroke-width="20" stroke-linecap="round" />
	<path d="M370.349 340.7C397.369 343.284 427.21 351.751 446.793 371.697C451.587 376.58 453.816 383.164 455.53 389.59"
		stroke="currentColor" stroke-width="20" stroke-linecap="round" />
	<path
		d="M433.856 370.437C427.787 373.848 427.932 373.663 420.024 379.062C401.496 391.711 382.967 404.851 366.989 420.7C357.733 429.881 354.966 434.246 347.92 444.389C343.375 450.932 339.227 458.334 333.219 463.738C329.05 467.489 322.644 469.345 317.426 471.243"
		stroke="currentColor" stroke-width="20" stroke-linecap="round" />
	<path
		d="M324.987 472.251C336.653 469.619 349.15 467.721 360.157 462.842C367.229 459.707 371.941 453.866 377.574 448.841C384.599 442.575 391.935 436.538 399.695 431.2C401.665 429.846 410.753 424.021 412.631 422.744C418.852 418.514 424.563 413.624 430.748 409.359C436.785 405.197 443.784 403.038 449.873 399.083C455.045 395.724 444.942 389.229 442.789 387.21C441.744 386.23 436.987 381.168 434.528 380.686C432.327 380.254 429.692 383.738 428.732 384.578C419.227 392.895 407.336 397.364 396.839 404.207C386.116 411.198 377.201 419.734 368.837 429.352C364.65 434.168 360.007 439.063 356.908 444.697C356.132 446.108 355.57 447.55 355.06 449.065C354.904 449.53 354.137 450.584 354.612 450.465C356.479 449.999 357.95 448.549 359.597 447.553C367.214 442.947 374.761 438.244 381.69 432.629C386.86 428.438 391.186 423.414 396.699 419.636C403.118 415.236 410.113 411.61 416.804 407.651C423.398 403.75 430.114 398.518 436.881 395.135"
		stroke="currentColor" stroke-width="20" stroke-linecap="round" />
	<path
		d="M371.357 402.191C382.131 388.723 391.057 372.9 404.735 362.093C407.429 359.965 409.375 359.031 412.715 360.273C415.232 361.208 418.281 362.875 417.56 366.097C416.712 369.884 410.758 371.181 407.843 372.565C403.962 374.408 400.182 376.806 396.054 378.082C394.856 378.452 394.073 378.495 392.918 378.054C388.879 376.508 385.419 376.821 381.158 377.494C380.287 377.631 375.672 378.884 374.325 377.774C372.862 376.567 373.475 371.916 373.541 370.941C373.856 366.316 373.477 360.557 374.605 356.045C375.309 353.231 380.621 354.46 382.446 354.644C383.432 354.744 389.206 354.85 389.894 356.157C391.145 358.533 388.23 362.987 386.478 364.389"
		stroke="currentColor" stroke-width="20" stroke-linecap="round" />
	<path
		d="M332.043 217.213C333.719 239.844 343.006 260.668 349.124 282.233C354.908 302.619 359.617 323.12 366.317 343.22"
		stroke="currentColor" stroke-width="20" stroke-linecap="round" />
	<path
		d="M341.116 226.79C346.648 231.677 349.759 239.348 353.268 245.663C358.876 255.753 364.78 265.004 372.421 273.664C375.727 277.41 379.089 280.587 383.062 283.605C390.447 289.215 397.176 295.792 403.615 302.45C410.693 309.768 416.778 318.011 424.056 325.131C431.291 332.209 439.656 337.958 446.821 345.124C451.912 350.215 457.305 356.763 463.594 360.357"
		stroke="currentColor" stroke-width="20" stroke-linecap="round" />
	<path
		d="M376.901 318.019C375.002 311.18 371.681 304.295 369.117 297.69C366.131 289.996 362.794 282.529 360.269 274.672"
		stroke="currentColor" stroke-width="20" stroke-linecap="round" />
	<path
		d="M394.542 328.603C392.73 318.863 389.25 307.908 384.686 299.09C383.164 296.149 383.517 297.402 386.534 300.938C393.151 308.692 398.746 316.825 404.623 325.075"
		stroke="currentColor" stroke-width="20" stroke-linecap="round" />
	<path
		d="M292.225 420.84C311.103 408.521 321.558 388.716 336.523 372.621C341.241 367.547 346.546 362.959 349.796 356.717C353.319 349.95 355.116 342.183 355.116 334.567C355.116 321.266 345.845 310.631 341.004 298.754C336.71 288.219 335.43 277.365 334.563 266.104"
		stroke="currentColor" stroke-width="20" stroke-linecap="round" />
	<path
		d="M342.628 317.515C342.854 327.694 341.873 337.368 338.764 347.112C337.938 349.699 336.774 351.165 334.955 353.244C330.884 357.901 326.59 362.297 322.075 366.517C314.454 373.639 307.165 381.873 301.55 390.654C297.378 397.177 293.095 403.256 288.193 409.247"
		stroke="currentColor" stroke-width="20" stroke-linecap="round" />
	<path
		d="M265.008 664.789C266.683 663.633 270.413 661.785 266.632 662.156C262.65 662.548 256.934 659.064 253.415 657.592C245.642 654.342 238.807 649.196 231.518 644.964C216.797 636.416 236.798 648.032 225.19 641.267C224.525 640.88 223.065 639.386 223.174 640.147C223.275 640.855 224.281 641.054 224.798 641.547C226.357 643.037 227.617 644.742 229.026 646.364C231.189 648.853 233.734 650.972 236.082 653.28C236.562 653.752 240.489 657.06 236.81 653.98C230.715 648.877 224.2 644.33 217.769 639.671C215.163 637.783 213.728 635.184 211.245 633.371C207.727 630.802 203.799 628.686 199.988 626.595C196.484 624.671 197.608 625.353 194.164 623.458C193.347 623.009 192.534 622.553 191.728 622.086C190.937 621.628 189.307 619.969 189.264 620.882C189.139 623.505 194.113 628.983 195.648 630.963C197.766 633.694 205.453 640.649 203.348 637.907C201.491 635.486 198.914 633.713 196.628 631.691C191.249 626.932 185.114 621.637 179.659 616.962C177.012 614.693 173.666 612.498 171.595 609.57C171.072 608.831 166.402 603.734 166.667 603.241C166.875 602.853 167.398 603.737 167.731 604.025C168.949 605.082 170.126 606.185 171.315 607.274C177.391 612.838 183.409 618.455 189.712 623.766C194.091 627.457 198.627 630.989 203.18 634.463C204.267 635.292 209.302 640.459 210.797 640.371C212.358 640.28 216.218 636.344 217.461 635.667C224.104 632.049 231.346 630.387 238.854 630.095C246.893 629.782 256.762 628.83 264.616 631.047C269.963 632.556 274.698 635.633 279.428 638.439C283.342 640.761 287.241 642.828 290.657 645.86C290.726 645.92 292.839 647.331 292.281 647.428C290.788 647.685 285.074 647.547 284.833 647.54C276.544 647.296 268.197 646.839 260.079 645.02C256.831 644.292 247.679 640.918 251.007 640.847C260.486 640.646 270.186 642.283 279.624 643.115"
		stroke="currentColor" stroke-width="20" stroke-linecap="round" />
	<path
		d="M166.723 580.112C168.513 585.354 169.236 590.941 171.371 596.073C174.757 604.213 184.483 607.176 192.036 610.018C204.637 614.759 216.893 620.456 229.726 624.467"
		stroke="currentColor" stroke-width="20" stroke-linecap="round" />
	<path
		d="M325.491 495.436C326 496.454 326.503 498.063 327.395 498.796C329.32 500.377 334.445 497.59 336.075 496.892C345.912 492.676 355.547 488.124 365.477 484.067C374.76 480.275 383.952 476.513 393.142 472.531C399.505 469.773 406.365 466.836 413.191 465.698"
		stroke="currentColor" stroke-width="20" stroke-linecap="round" />
	<path
		d="M408.151 457.634C413.138 450.735 417.472 442.418 423.58 436.465C431.551 428.695 445.557 427.674 455.922 426.832C460.153 426.489 464.562 426.798 468.774 426.244C472.192 425.794 475.445 423.073 478.127 421.148C485.689 415.719 492.965 409.933 498.456 402.331C500.421 399.61 502.212 396.502 498.988 394.127C496.787 392.505 494.451 391.093 491.931 390.038C486.04 387.572 480.654 392.937 478.099 397.879C475.722 402.475 473.248 406.624 470.146 410.759"
		stroke="currentColor" stroke-width="20" stroke-linecap="round" />
	<path
		d="M166.723 545.838C163.506 551.425 164.159 561.054 165.042 567.176C165.492 570.288 166.177 574.535 168.739 576.584"
		stroke="currentColor" stroke-width="20" stroke-linecap="round" />
	<path d="M614.298 554.407C625.232 558.507 613.29 569.832 613.29 576.08" stroke="currentColor" stroke-width="20"
		stroke-linecap="round" />
	<path
		d="M620.85 556.423C629.526 551.268 634.339 541.792 638.491 533.014C644.541 520.222 651.676 507.927 657.336 494.96C661.508 485.403 664.491 475.429 669.741 466.342C673.311 460.163 676.208 453.696 679.821 447.553"
		stroke="currentColor" stroke-width="20" stroke-linecap="round" />
	<path
		d="M665.205 460.658C659.325 461.288 652.287 467.503 648.348 471.523C642.338 477.654 638.179 485.908 634.123 493.364C630.013 500.918 625.956 508.507 622.026 516.157C619.685 520.714 617.071 525.399 615.53 530.326C614.37 534.035 612.747 540.69 614.018 544.55C614.612 546.356 617.065 542.132 618.022 540.49C621.693 534.191 624.847 527.607 628.523 521.309C632.651 514.235 637.383 507.492 641.627 500.476C644.842 495.162 648.772 489.643 651.092 483.843"
		stroke="currentColor" stroke-width="20" stroke-linecap="round" />
	<path d="M603.713 557.431C606.083 555.923 607.342 553.903 603.713 553.903" stroke="currentColor" stroke-width="20"
		stroke-linecap="round" />
	<path d="M603.209 567.512H604.721" stroke="currentColor" stroke-width="20" stroke-linecap="round" />
	<path d="M603.713 541.806C604.017 543.022 605.898 540.629 606.233 540.294" stroke="currentColor" stroke-width="20"
		stroke-linecap="round" />
	<path d="M609.258 515.093C610.199 514.23 611.165 513.635 612.282 513.077" stroke="currentColor" stroke-width="20"
		stroke-linecap="round" />
	<path
		d="M615.81 502.492C616.061 500.359 620.144 497.383 621.41 495.604C624.479 491.293 627.441 487.18 630.735 483.143C633.775 479.416 635.963 474.493 639.555 471.243C641.95 469.076 644.701 467.334 647.088 465.138C647.643 464.628 647.899 464.41 648.572 464.186"
		stroke="currentColor" stroke-width="20" stroke-linecap="round" />
	<path
		d="M685.87 423.36C687.163 415.458 689.223 408.135 687.214 400.175C685.19 392.156 685.546 383.534 685.982 375.31C686.263 370 686.67 364.589 687.382 359.321C688.196 353.295 687.445 347.206 687.382 341.148C687.332 336.414 686.838 331.922 685.59 327.343C683.897 321.137 683.535 314.684 681.501 308.582C679.307 301.999 677.318 295.676 676.069 288.841C674.895 282.418 673.648 276.887 670.721 271.032C668.558 266.708 665.869 262.153 664.7 257.423C663.559 252.802 662.402 248.359 660.08 244.151C655.543 235.927 651.946 227.302 647.564 219.005C646.128 216.289 643.713 209.713 640.507 208.645"
		stroke="currentColor" stroke-width="10" stroke-linecap="round" />
	<path
		d="M686.374 404.207C686.374 410.589 684.995 417.781 683.377 423.948C682.492 427.325 682.272 431.501 679.821 434.225C677.02 437.337 675.053 443.208 673.325 447.049C671.356 451.425 668.9 455.674 667.221 460.154"
		stroke="currentColor" stroke-width="10" stroke-linecap="round" />
	<path
		d="M675.285 449.569C675.599 448.104 676.482 446.888 677.525 445.845C679.532 443.839 679.769 441.05 680.549 438.425C681.262 436.026 681.808 433.411 679.821 431.424"
		stroke="currentColor" stroke-width="10" stroke-linecap="round" />
	<path d="M608.25 523.157C605.227 524.256 606.233 530.721 606.233 533.238" stroke="currentColor" stroke-width="10"
		stroke-linecap="round" />
	<path d="M606.737 521.141C603.04 522.822 604.081 533.593 603.713 537.27" stroke="currentColor" stroke-width="10"
		stroke-linecap="round" />
	<path d="M300.29 483.339C290.362 487.594 288.193 497.567 288.193 507.028" stroke="currentColor" stroke-width="10"
		stroke-linecap="round" />
	<path
		d="M285.169 498.46C284.725 495.357 282.989 492.472 282.201 489.443C281.148 485.401 281.084 481.227 279.736 477.235C276.79 468.505 272.523 460.26 269.6 451.53C265.769 440.086 266.858 426.599 272.176 415.8C279.208 401.52 293.489 392.164 304.322 381.022"
		stroke="currentColor" stroke-width="10" stroke-linecap="round" />
	<path d="M330.531 174.371C324.816 186.087 327.407 203.405 333.051 214.693" stroke="currentColor" stroke-width="10"
		stroke-linecap="round" />
	<path
		d="M483.251 382.03C484.394 372.633 484.295 364.252 480.927 355.205C477.298 345.456 474.005 335.111 465.666 328.323C459.237 323.09 448.706 321.341 440.773 319.867C437.799 319.314 434.861 319.027 431.84 319.027C429.256 319.027 428.65 314.299 428.144 312.474C425.378 302.497 422.801 292.924 415.768 284.921C413.825 282.71 411.642 280.763 409.943 278.341C407.409 274.728 405.569 270.731 402.775 267.28C392.874 255.05 377.923 257.031 363.797 257.031"
		stroke="currentColor" stroke-width="10" stroke-linecap="round" />
	<path
		d="M280.632 419.328C280.533 420.81 280.238 425.256 280.408 423.78C280.601 422.113 280.671 420.388 280.632 418.712C280.627 418.461 279.884 415.122 279.876 415.268C279.574 421.465 282.44 429.21 284.637 434.897C286.489 439.691 286.315 434.817 286.289 433.329C286.262 431.813 286.532 428.681 284.385 428.288C274.436 426.47 279.446 441.157 281.053 445.033C283.287 450.425 286.292 455.435 290.153 459.818C292.985 463.033 295.053 464.593 296.257 459.482C296.925 456.647 298.002 452.612 297.741 449.653C297.57 447.706 296.522 454.226 294.605 454.61C294.31 454.669 291.545 446.689 290.545 451.586C290.412 452.234 290.428 456.004 291.889 455.702C295.721 454.909 288.292 441.928 287.773 441.113C285.185 437.053 281.853 433.562 279.232 429.52C278.044 427.688 276.689 422.664 275.256 424.312C273.38 426.469 273.705 434.387 274.584 436.969C275.614 439.993 274.589 443.412 274.668 446.573C274.796 451.67 276.933 455.685 278.224 460.434C279.959 466.81 282.358 473.042 284.693 479.223C285.126 480.37 287.842 488.766 289.257 486.755C292.513 482.129 291.723 477.33 290.629 472.111C289.967 468.952 289.301 465.624 288.081 462.618C286.841 459.565 285.102 458.902 282.649 457.13"
		stroke="currentColor" stroke-width="10" stroke-linecap="round" />
	<path
		d="M418.736 307.938C414.798 301.684 409.492 296.102 404.679 290.521C399.857 284.93 395.007 279.508 388.942 275.232C384.672 272.222 380.982 269.476 378.19 264.984C376.955 262.997 377.98 263.433 379.646 264.2C382.08 265.32 384.802 266.044 387.15 267.308C393.521 270.739 398.591 276.596 403.027 282.177C407.089 287.288 411.567 291.895 415.768 296.877C416.647 297.92 417.571 298.93 418.4 300.014C419.786 301.826 416.196 296.016 415.039 294.049C412.33 289.444 409.728 284.772 406.247 280.693C404.118 278.197 402.551 276.073 401.095 273.16"
		stroke="currentColor" stroke-width="10" stroke-linecap="round" />
	<path
		d="M486.275 424.872C491.276 423.696 497.135 419.896 500.416 415.912C502.699 413.139 504.098 409.708 506.436 407.007C507.261 406.054 508.569 405.874 508.956 404.711"
		stroke="currentColor" stroke-width="10" stroke-linecap="round" />
	<path
		d="M476.699 367.917C477.473 367.354 478.73 366.487 478.659 365.341C478.644 365.107 477.17 366.613 476.699 365.901C475.765 364.49 476.711 361.534 475.075 360.553C473.134 359.389 473.454 363.311 473.283 358.957C473.204 356.97 473.004 353.924 471.21 352.572C469.781 351.495 469.702 355.452 469.194 354.532C467.786 351.985 467.163 349.219 465.498 346.748C463.295 343.478 460.103 340.783 456.958 338.46C452.668 335.291 448.235 332.338 443.965 329.135C441.776 327.493 436.197 324.619 442.369 326.363C450.056 328.535 459.309 330.912 465.218 336.696C467.327 338.76 468.345 341.634 469.642 344.228"
		stroke="currentColor" stroke-width="10" stroke-linecap="round" />
	<path
		d="M459.058 71.0457C453.823 71.3947 449.347 73.051 443.993 72.0818C437.979 70.993 432.406 68.7029 426.912 66.1175C423.055 64.3022 418.821 64.3753 414.647 63.9894C405.119 63.1081 395.396 62.7888 385.834 62.2533C378.608 61.8486 371.507 61.9328 364.301 62.4773C348.585 63.6647 331.539 63.0751 316.754 69.3096C313.553 70.6598 310.245 72.3056 306.842 73.0618C305.289 73.407 303.629 73.6915 302.306 74.5739"
		stroke="currentColor" stroke-width="10" stroke-linecap="round" />
	<path
		d="M312.386 76.086C314.501 76.086 316.717 75.8999 318.826 76.086C321.517 76.3234 322.036 77.7128 323.307 79.3902C326.96 84.2127 333.66 70.4039 330.027 71.4938C328.11 72.0689 326.3 73.2301 324.259 73.3419C323.868 73.3633 321.222 73.0844 323.587 73.0619C328.952 73.0108 334.49 73.5009 339.716 72.0538C342.843 71.1878 345.417 69.4473 348.452 68.3576C350.533 67.6104 352.75 67.8034 354.724 67.0136"
		stroke="currentColor" stroke-width="10" stroke-linecap="round" />
	<path d="M374.381 67.0135H377.406" stroke="currentColor" stroke-width="10" stroke-linecap="round" />
	<path
		d="M383.958 68.0216C389.133 68.0216 394.73 67.4691 399.807 68.4136C405.041 69.3874 410.451 68.4226 415.768 69.5897C421.785 70.9106 427.936 71.3218 433.912 72.6698C439.989 74.0405 444.821 77.0941 451.189 77.0941C456.686 77.0941 462.186 77.0343 467.682 77.0941C471.376 77.1342 474.857 77.7686 478.211 79.1102"
		stroke="currentColor" stroke-width="10" stroke-linecap="round" />
	<path
		d="M258.455 612.874C260.513 610.816 253.835 612.987 253.079 613.042C247.956 613.411 241.657 610.68 237.958 616.122C236.913 617.661 236.534 621.488 238.714 622.422C241.252 623.51 244.163 619.529 246.191 618.586C251.178 616.267 259.363 618.809 264.504 619.426"
		stroke="currentColor" stroke-width="10" stroke-linecap="round" />
	<path
		d="M268.032 617.41C271.03 618.695 273.464 621.371 276.068 623.262C280.834 626.725 286.054 629.447 290.881 632.811C294.322 635.209 297.299 637.784 299.953 641.043C301.85 643.373 303.436 645.391 306.002 646.98C311.197 650.196 316.72 653.569 321.403 657.508C323.311 659.114 324.915 660.876 327.003 662.268"
		stroke="currentColor" stroke-width="10" stroke-linecap="round" />
	<path
		d="M272.568 657.732C282.441 658.349 292.415 658.255 302.25 659.244C309.189 659.942 314.694 661.347 321.011 663.949C326.269 666.114 310.814 658.889 305.918 655.996C304.049 654.892 302.234 653.664 300.29 652.692C299.711 652.403 298.481 652.188 299.785 652.188"
		stroke="currentColor" stroke-width="10" stroke-linecap="round" />
	<path
		d="M320.451 668.317C327.415 670.307 332.252 676.715 339.548 677.809C343.652 678.425 348.055 678.02 352.204 678.397"
		stroke="currentColor" stroke-width="10" stroke-linecap="round" />
	<path
		d="M177.307 577.088C180.987 581.504 182.999 587.383 186.352 592.097C190.145 597.432 194.9 601.789 201.052 604.193C211.617 608.322 223.37 606.862 233.758 610.858"
		stroke="currentColor" stroke-width="10" stroke-linecap="round" />
	<path
		d="M175.795 536.766C175.41 536.871 172.116 536.973 172.519 536.066C172.605 535.872 174.949 534.945 175.291 534.75"
		stroke="currentColor" stroke-width="10" stroke-linecap="round" />
	<path
		d="M159.666 587.673C158.916 592.424 157.707 597.484 156.082 601.953C155.911 602.423 157.939 604.248 156.81 602.877C154.563 600.148 152.342 597.74 149.782 595.345C148.483 594.13 146.484 592.155 146.17 590.305C145.883 588.62 149.157 588.766 150.062 588.653C154.337 588.118 157.017 584.492 159.162 581.12"
		stroke="currentColor" stroke-width="10" stroke-linecap="round" />
	<path
		d="M405.127 73.0618C411.178 73.0618 417.146 75.4864 423.16 75.974C426.739 76.2642 429.755 76.1907 433.128 77.6261C437.003 79.275 440.662 80.4489 444.833 81.1263C455.176 82.8059 464.887 80.6222 475.187 80.6222"
		stroke="currentColor" stroke-width="10" stroke-linecap="round" />
	<path d="M601.697 578.6C603.193 577.808 604.343 576.5 605.729 575.576" stroke="currentColor" stroke-width="10"
		stroke-linecap="round" />
	<path
		d="M595.145 567.008C593.244 563.966 591.965 557.331 593.185 553.847C594.616 549.759 596.647 546.05 597.217 541.778C597.5 539.652 598.978 537.756 599.653 535.73C600.521 533.125 601.253 530.343 601.977 527.693C603.463 522.26 603.063 517.929 599.681 513.581"
		stroke="currentColor" stroke-width="10" stroke-linecap="round" />
	<path
		d="M592.121 584.648C594.411 582.358 596.973 580.289 599.065 577.816C599.58 577.208 600.131 576.558 600.521 575.856C601.409 574.259 599.58 574.265 598.673 573.56"
		stroke="currentColor" stroke-width="10" stroke-linecap="round" />
	<path d="M607.241 519.125C605.088 519.012 601.092 517.511 599.681 516.101" stroke="currentColor" stroke-width="10"
		stroke-linecap="round" />
	<path d="M298.273 490.396C305.085 491.673 311.948 495.701 317.93 498.964" stroke="currentColor" stroke-width="10"
		stroke-linecap="round" />
	<path
		d="M292.729 496.444C299.834 497.005 307.07 499.136 313.842 501.26C316.554 502.111 319.162 503.537 321.963 504.004"
		stroke="currentColor" stroke-width="10" stroke-linecap="round" />
	<path
		d="M292.729 502.492C295.651 502.492 298.241 502.102 300.962 500.98C303.749 499.83 306.381 499.972 309.362 499.972"
		stroke="currentColor" stroke-width="10" stroke-linecap="round" />
	<path
		d="M315.914 507.532C320.834 508.147 325.835 510.79 330.867 509.717C334.987 508.838 338.456 506.366 342.348 504.9C345.679 503.646 349.281 503.43 352.652 502.268C367.946 496.998 383.045 491.254 398.295 485.859C402.87 484.241 406.832 481.199 411.175 479.083C415.176 477.134 418.524 475.186 421.984 472.419C425.383 469.699 427.155 467.251 425.4 463.066C424.258 460.342 422.605 458.684 422.264 455.618"
		stroke="currentColor" stroke-width="10" stroke-linecap="round" />
	<path
		d="M328.515 343.724C329.072 339.08 330.118 334.514 330.419 329.835C330.655 326.161 330.03 322.243 330.867 318.635C331.663 315.206 333.364 311.719 333.051 308.106C332.854 305.831 331.268 303.663 330.223 301.75C328.301 298.232 326.728 295.044 326.303 291.025C325.668 285.031 324.901 278.95 324.567 272.936C324.299 268.123 323.216 261.431 325.771 257.087C326.274 256.232 327.258 255.797 327.703 254.931C328.667 253.054 328.395 250.498 328.067 248.519C326.908 241.528 323.421 235.336 323.055 228.134C322.767 222.477 322.971 216.773 322.971 211.109C322.971 208.417 323.834 206.203 324.175 203.549C325.018 196.988 323.83 191.194 321.683 185.068C319.524 178.908 323.95 170.809 328.487 166.839C330.909 164.719 332.689 162.414 334.563 159.81C336.502 157.117 338.79 155.827 341.62 154.21"
		stroke="currentColor" stroke-width="10" stroke-linecap="round" />
	<path
		d="M322.971 254.511C322.815 250.932 321.522 247.571 320.479 244.179C319.239 240.152 320.881 236.11 320.227 232.054C319.557 227.903 318.229 223.678 317.958 219.481C317.831 217.506 318.434 215.658 318.434 213.685"
		stroke="currentColor" stroke-width="10" stroke-linecap="round" />
	<path
		d="M326.499 300.378C326.499 306.251 325.688 311.471 328.011 317.011C330.226 322.293 333.114 327.471 334.059 333.139"
		stroke="currentColor" stroke-width="10" stroke-linecap="round" />
	<path
		d="M323.979 351.284C324.432 350.538 326.354 346.864 324.203 349.156C321.75 351.77 319.227 354.244 316.698 356.773C311.174 362.297 306.287 367.806 301.69 374.133C299.237 377.509 295.68 379.734 292.561 382.422C288.823 385.644 286.241 389.685 283.265 393.566C280.286 397.452 277.842 401.416 275.088 405.439C272.978 408.521 270.343 410.544 268.536 413.952C266.708 417.399 265.74 421.17 263.888 424.592C262.379 427.38 261.522 429.577 261.479 432.769C261.385 439.862 263.782 445.591 265.512 452.37C266.873 457.706 268.564 462.83 271.56 467.49C272.043 468.241 274.898 471.747 273.072 471.747"
		stroke="currentColor" stroke-width="10" stroke-linecap="round" />
	<path
		d="M341.116 509.045C352.18 507.661 361.982 503.635 372.477 500.224C375.93 499.102 378.647 498.308 381.774 496.668C384.364 495.309 387.365 495.509 390.006 493.924"
		stroke="currentColor" stroke-width="5" stroke-linecap="round" />
	<path
		d="M601.445 507.028C603.735 506.479 601.15 508.288 600.703 508.288C600.624 508.288 603.462 505.626 603.881 505.264C605.152 504.167 606.668 503.265 607.241 501.736"
		stroke="currentColor" stroke-width="5" stroke-linecap="round" />
	<path
		d="M601.949 503.752C604.203 501.569 604.526 498.246 606.485 495.884C607.629 494.505 609.055 493.403 610.182 491.992C611.718 490.068 613.084 488.023 614.676 486.139C618.13 482.052 621.641 478.195 624.742 473.819C627.918 469.338 631.497 464.996 635.397 461.134C638.858 457.706 643.586 454.399 648.418 453.308C652.508 452.384 656.609 454.065 660.612 452.426C663.363 451.299 666.145 449.589 668.761 448.141C670.744 447.043 672.475 445.584 672.765 443.269"
		stroke="currentColor" stroke-width="5" stroke-linecap="round" />
	<path d="M668.985 446.293C669.897 445.942 670.763 444.905 671.505 444.277" stroke="currentColor" stroke-width="5"
		stroke-linecap="round" />
	<path
		d="M620.094 480.567C620.815 475.247 624.176 470.752 627.249 466.51C630.872 461.509 636.521 457.853 641.711 454.624C643.756 453.351 645.711 451.957 648.012 451.166C649.939 450.503 652.365 450.454 654.368 450.185C657.618 449.75 662.398 450.18 665.204 448.309"
		stroke="currentColor" stroke-width="5" stroke-linecap="round" />
	<path
		d="M617.07 481.071C617.993 479.039 619.753 477.441 621.158 475.751C622.757 473.826 623.901 471.587 624.91 469.31C625.873 467.141 627.1 465.446 628.915 463.934"
		stroke="currentColor" stroke-width="5" stroke-linecap="round" />
	<path d="M622.866 471.999C623.628 470.095 624.847 468.445 625.89 466.706" stroke="currentColor" stroke-width="5"
		stroke-linecap="round" />
	<path
		d="M630.175 459.902C631.447 458.962 632.294 457.482 633.227 456.234C634.74 454.209 636.381 452.553 638.715 451.502C640.821 450.553 643.261 449.855 645.547 449.569"
		stroke="currentColor" stroke-width="5" stroke-linecap="round" />
	<path d="M652.604 448.309C654.808 448.231 656.941 447.449 659.156 447.301" stroke="currentColor" stroke-width="5"
		stroke-linecap="round" />
	<path d="M655.88 445.032L656.637 445.789" stroke="currentColor" stroke-width="5" stroke-linecap="round" />
	<path d="M593.633 576.836C593.633 574.264 593.24 571.821 592.877 569.276" stroke="currentColor" stroke-width="5"
		stroke-linecap="round" />
	<path
		d="M591.869 572.552C590.588 571.476 590.621 569.731 590.609 568.184C590.585 565.233 590.277 562.263 590.049 559.321C589.925 557.731 589.337 556.399 589.027 554.869C588.745 553.481 588.801 551.949 588.873 550.543C588.998 548.063 590.019 545.938 591.617 544.074"
		stroke="currentColor" stroke-width="5" stroke-linecap="round" />
	<path
		d="M588.844 558.943C588.769 556.311 588.06 553.285 588.844 550.725C589.599 548.263 591.725 546.808 593.633 545.334"
		stroke="currentColor" stroke-width="5" stroke-linecap="round" />
	<path d="M593.633 545.334H593.885" stroke="currentColor" stroke-width="5" stroke-linecap="round" />
	<path
		d="M590.861 590.697C593.977 587.775 597.921 587.231 601.557 585.264C603.123 584.418 604.491 583.364 606.135 582.646C607.452 582.071 608.757 581.554 610.014 580.868"
		stroke="currentColor" stroke-width="5" stroke-linecap="round" />
	<path d="M590.861 590.949C590.362 591.946 590.122 592.895 589.853 593.973" stroke="currentColor" stroke-width="5"
		stroke-linecap="round" />
	<path d="M676.545 431.676C676.993 429.051 678.191 426.355 679.569 424.116" stroke="currentColor" stroke-width="5"
		stroke-linecap="round" />
	<path
		d="M678.309 422.352C679.411 420.353 680.311 418.6 680.577 416.304C680.928 413.274 680.829 410.205 680.829 407.161C680.829 401.429 681.27 395.695 680.955 389.968C680.544 382.476 680.437 374.887 681.305 367.441C681.704 364.027 681.514 360.62 682.089 357.221C682.66 353.848 682.882 350.591 682.831 347.168C682.771 343.089 682.22 339.189 681.501 335.183C681.064 332.748 681.382 330.179 680.801 327.791C680.052 324.712 678.42 321.936 677.651 318.831C676.962 316.049 676.096 313.312 675.593 310.486C674.333 303.407 678.529 324.661 678.561 331.851C678.584 337.021 679.313 341.884 681.081 346.748"
		stroke="currentColor" stroke-width="5" stroke-linecap="round" />
	<path d="M678.813 402.191C678.249 396.547 676.779 390.412 678.309 384.802" stroke="currentColor" stroke-width="5"
		stroke-linecap="round" />
	<path
		d="M674.781 306.93C675.089 302.316 673.652 298.394 672.205 294.021C671.314 291.331 670.311 288.693 670.007 285.859C669.737 283.353 669.338 281.04 668.509 278.649C666.715 273.479 664.279 268.595 662.152 263.556C660.28 259.118 659.448 254.477 657.896 249.933C657.407 248.5 657.065 246.97 656.328 245.635C655.508 244.148 654.458 242.802 653.64 241.309C651.402 237.224 649.276 233.083 647.032 229.002C645.845 226.845 644.522 224.735 643.531 222.478C642.614 220.389 642.112 218.063 640.857 216.135C639.688 214.339 638.02 212.808 637.483 210.661"
		stroke="currentColor" stroke-width="5" stroke-linecap="round" />
	<path
		d="M650.084 239.642C650.735 241.858 652.205 244.03 653.192 246.111C653.743 247.272 654.192 249.232 655.628 249.471"
		stroke="currentColor" stroke-width="5" stroke-linecap="round" />
	<path
		d="M661.172 267.112C661.795 271.29 663.536 275.442 665.05 279.363C666.097 282.072 667.26 284.528 668.733 287.021"
		stroke="currentColor" stroke-width="5" stroke-linecap="round" />
	<path
		d="M674.025 434.197C674.549 433.906 674.856 432.556 675.089 431.984C675.183 431.753 676.202 430.859 675.383 431.074C673.954 431.451 674.529 434.062 674.529 435.205"
		stroke="currentColor" stroke-width="5" stroke-linecap="round" />
	<path
		d="M319.947 257.283C319.192 265.959 319.638 274.816 321.291 283.409C322.125 287.748 321.977 292.238 322.719 296.625C323.537 301.463 324.086 306.35 324.735 311.214"
		stroke="currentColor" stroke-width="5" stroke-linecap="round" />
	<path
		d="M317.678 274.672C316.896 272.411 316.051 277.981 315.984 278.621C315.655 281.778 315.731 285.299 316.082 288.449C316.506 292.245 317.357 295.899 318.28 299.594C319.139 303.028 319.398 306.597 319.919 310.094C320.304 312.683 320.052 315.253 320.255 317.851C320.452 320.375 321.677 322.76 322.327 325.187C323.781 330.622 326.316 335.316 328.515 340.448"
		stroke="currentColor" stroke-width="5" stroke-linecap="round" />
	<path
		d="M327.507 328.855C325.565 326.561 324.768 322.368 323.895 319.559C321.92 313.203 322.642 306.545 321.627 300.042C320.877 295.239 319.232 290.667 318.728 285.817C318.466 283.29 318.632 280.674 318.182 278.201"
		stroke="currentColor" stroke-width="5" stroke-linecap="round" />
	<path d="M322.467 197.052C318.636 195.669 319.299 188.556 318.182 185.208" stroke="currentColor" stroke-width="5"
		stroke-linecap="round" />
	<path
		d="M318.938 178.403C318.938 175.764 319.485 174.041 320.955 171.837C322.308 169.808 323.069 167.479 324.595 165.551C326.359 163.321 327.845 161.085 329.369 158.676C330.169 157.412 331.109 155.856 332.295 154.966"
		stroke="currentColor" stroke-width="5" stroke-linecap="round" />
	<path
		d="M326.247 161.77C324.725 162.64 323.128 164.931 322.117 166.335C320.894 168.032 319.658 169.929 318.938 171.907C318.184 173.983 318.182 175.99 318.182 178.151"
		stroke="currentColor" stroke-width="5" stroke-linecap="round" />
	<path
		d="M315.41 225.026C312.831 228.527 314.061 233.74 315.158 237.542C315.986 240.41 316.287 243.321 318.182 245.691"
		stroke="currentColor" stroke-width="5" stroke-linecap="round" />
	<path d="M314.654 225.026C314.654 224.087 314.722 223.174 314.906 222.254" stroke="currentColor" stroke-width="5"
		stroke-linecap="round" />
	<path d="M269.04 467.462C268.953 468.069 268.715 468.643 268.536 469.226" stroke="currentColor" stroke-width="5"
		stroke-linecap="round" />
	<path
		d="M265.512 461.162C263.82 460.54 262.731 460.379 261.648 458.964C260.947 458.049 260.047 457.375 259.281 456.528C259.257 456.501 258.524 455.512 258.483 455.604C257.841 457.048 259.809 457.451 260.723 457.634"
		stroke="currentColor" stroke-width="5" stroke-linecap="round" />
	<path
		d="M258.959 454.358C258.183 453.954 258.093 453.277 257.657 452.58C257.001 451.53 256.117 450.563 255.151 449.793C253.531 448.502 252.847 444.997 254.381 443.339C255.17 442.486 256.327 441.93 257.195 441.141C258.424 440.024 258.018 441.821 257.937 442.723C257.725 445.08 257.179 449.462 259.967 450.577"
		stroke="currentColor" stroke-width="5" stroke-linecap="round" />
	<path
		d="M275.844 478.803C276.931 480.252 276.774 482.894 276.908 484.599C277.192 488.194 277.316 492.131 278.308 495.604C279.406 499.446 281.625 503.239 285.169 505.264"
		stroke="currentColor" stroke-width="5" stroke-linecap="round" />
	<path
		d="M369.593 252.495C369.401 251.598 368.84 250.749 368.445 249.933C367.497 247.971 366.709 245.93 365.645 244.025C364.526 242.021 363.306 240.071 362.173 238.074C360.858 235.758 359.79 233.261 358.309 231.046C354.062 224.698 348.771 219.677 342.46 215.505C341.379 214.791 340.781 212.624 340.08 211.571C338.706 209.511 336.52 208.121 335.361 205.943C334.15 203.664 333.483 201.148 333.051 198.62C332.407 194.85 331.786 190.838 332.015 187C332.322 181.853 333.629 177.325 335.137 172.453C335.43 171.507 335.44 170.439 335.655 169.471C335.781 168.905 335.92 168.342 336.047 167.777C336.194 167.128 336.899 165.44 336.341 165.803C335.222 166.531 334.086 170.055 333.555 171.095"
		stroke="currentColor" stroke-width="5" stroke-linecap="round" />
	<path
		d="M350.188 219.481C348.398 215.209 344.465 212.671 341.718 209.093C340.324 207.277 338.839 205.456 337.615 203.521C336.069 201.075 336.223 198.328 335.739 195.568C334.689 189.576 333.379 184.032 336.201 178.235C336.784 177.039 337.613 175.916 337.979 174.623C338.221 173.771 338.353 173.097 338.848 172.355"
		stroke="currentColor" stroke-width="5" stroke-linecap="round" />
	<path
		d="M373.373 251.739C371.955 245.003 367.234 239.158 363.601 233.51C361.825 230.75 360.417 227.761 358.113 225.39C357.338 224.593 356.318 223.03 355.228 222.758"
		stroke="currentColor" stroke-width="5" stroke-linecap="round" />
	<path
		d="M284.161 385.306C285.671 382.673 287.179 380.041 289.117 377.69C291.605 374.672 294.672 372.235 297.265 369.317C299.34 366.984 302.039 365.526 303.986 363.073C306.373 360.063 308.714 357.218 311.504 354.56C314.016 352.168 316.567 349.949 319.26 347.77C321.478 345.977 323.397 343.818 324.315 341.064C325.414 337.766 325.795 334.253 324.231 331.123"
		stroke="currentColor" stroke-width="5" stroke-linecap="round" />
	<path
		d="M320.955 344.732C322.85 343.514 323.413 339.806 323.951 337.83C324.51 335.771 324.735 333.753 324.735 331.627"
		stroke="currentColor" stroke-width="5" stroke-linecap="round" />
	<path
		d="M272.316 402.695C274.229 394.696 277.634 387.646 282.341 380.938C282.773 380.322 283.325 379.498 283.993 379.104C284.799 378.627 283.284 380.839 282.901 381.694C281.853 384.027 281.333 386.47 280.436 388.834C280.164 389.552 279.744 390.776 278.924 389.618C277.954 388.246 278.651 386.617 278 385.278C277.795 384.855 277.123 386.796 276.992 386.958C276.119 388.043 276.348 389.22 276.348 390.598"
		stroke="currentColor" stroke-width="5" stroke-linecap="round" />
	<path d="M271.308 404.207C269.807 403.63 268.826 408.531 268.536 409.499" stroke="currentColor" stroke-width="5"
		stroke-linecap="round" />
	<path
		d="M285.169 378.754C286.484 377.57 287.415 375.841 288.557 374.498C291.12 371.483 293.992 368.437 296.999 365.859C298.065 364.945 299.35 364.367 300.416 363.451C301.884 362.189 303.057 360.66 304.322 359.209C305.233 358.163 306.279 357.378 307.402 356.577C309.132 355.341 310.482 353.789 312.064 352.39C313.447 351.167 315.056 349.753 316.922 349.52"
		stroke="currentColor" stroke-width="5" stroke-linecap="round" />
	<path
		d="M283.657 378.754C284.006 376.31 285.059 373.767 286.821 372.005C288.52 370.306 290.685 369.218 292.337 367.441C294.769 364.826 298.109 362.894 301.046 360.861"
		stroke="currentColor" stroke-width="5" stroke-linecap="round" />
	<path
		d="M256.439 432.685C255.786 432.506 255.417 431.753 254.997 431.284C254.034 430.211 252.276 429.438 251.721 428.05C251.428 427.318 251.946 426.309 252.211 425.656C252.896 423.967 253.665 422.343 254.563 420.756C256.04 418.145 258.763 416.369 260.891 414.316C263.095 412.189 264.38 409.639 267.024 407.987"
		stroke="currentColor" stroke-width="5" stroke-linecap="round" />
	<path
		d="M255.935 429.912C256.599 426.592 258.572 423.222 260.051 420.21C260.635 419.023 261.338 416.818 262.488 416.052"
		stroke="currentColor" stroke-width="5" stroke-linecap="round" />
	<path
		d="M307.094 503.5C310.964 503.887 311.304 508.742 312.386 511.649C312.789 512.731 313.322 515.112 314.374 515.709C315.849 516.544 317.564 515.789 318.966 515.205C321.1 514.316 323.306 513.576 325.491 512.825"
		stroke="currentColor" stroke-width="5" stroke-linecap="round" />
	<path
		d="M313.898 513.329C316.845 513.329 319.504 512.685 322.397 512.265C326.1 511.727 329.819 512.656 333.555 512.265C340.955 511.489 348.214 509.584 355.634 509.073C362.154 508.623 367.679 504.593 373.933 502.898C378.073 501.776 381.73 499.914 385.218 497.452"
		stroke="currentColor" stroke-width="5" stroke-linecap="round" />
	<path d="M270.552 673.861C273.934 670.354 277.275 666.807 280.632 663.277" stroke="currentColor" stroke-width="5"
		stroke-linecap="round" />
	<path d="M273.072 676.381C276.624 671.054 281.929 667.048 286.177 662.268" stroke="currentColor" stroke-width="5"
		stroke-linecap="round" />
	<path
		d="M276.096 678.397C279.689 676.386 281.944 671.056 284.553 667.925C286.949 665.05 289.581 662.392 292.225 659.748"
		stroke="currentColor" stroke-width="5" stroke-linecap="round" />
	<path
		d="M289.201 665.797C294.374 663.42 299.854 663.781 305.414 663.781C308.636 663.781 311.824 663.359 314.57 665.377C315.915 666.365 316.876 668.301 318.434 668.821"
		stroke="currentColor" stroke-width="5" stroke-linecap="round" />
	<path
		d="M354.724 679.909C357.915 679.255 361.09 679.622 364.301 679.293C367.47 678.969 370.536 678.088 373.569 677.165C376.142 676.382 378.888 677.231 381.438 676.381"
		stroke="currentColor" stroke-width="5" stroke-linecap="round" />
	<path
		d="M177.811 539.79C185.016 539.578 194.56 539.061 200.996 535.674C205.164 533.48 209.355 531.369 213.569 529.262C217.641 527.225 222.185 526.684 226.366 524.949C233.537 521.974 232.285 515.337 235.83 509.577C237.102 507.51 238.39 505.449 240.87 504.984C242.733 504.635 244.237 503.921 245.855 502.996"
		stroke="currentColor" stroke-width="5" stroke-linecap="round" />
	<path
		d="M238.042 608.59C245.108 607.994 252.187 607.29 259.267 606.882C261.638 606.745 263.304 607.813 264.322 609.948C264.801 610.953 264.815 612.164 265.218 613.084C265.634 614.036 268.201 612.848 268.788 612.622"
		stroke="currentColor" stroke-width="5" stroke-linecap="round" />
	<path
		d="M270.048 612.874C271.475 613.01 272.56 614.1 273.66 614.918C275.117 616.001 276.75 616.822 278.168 617.956C281.312 620.471 284.463 623.47 288.207 625.027C292.946 626.996 296.814 628.958 299.953 633.119C302.9 637.024 306.147 640.814 308.858 644.88"
		stroke="currentColor" stroke-width="5" stroke-linecap="round" />
	<path d="M234.514 608.59C237.379 608.446 240.211 608.086 243.083 608.086" stroke="currentColor" stroke-width="5"
		stroke-linecap="round" />
	<path
		d="M234.262 607.582C239.577 607.445 244.826 607.613 250.139 607.582C253.992 607.559 256.677 605.738 260.219 604.557"
		stroke="currentColor" stroke-width="5" stroke-linecap="round" />
	<path
		d="M268.032 611.362C267.388 609.573 267.686 607.607 267.108 605.79C266.248 603.086 265.828 600.793 266.156 597.935C266.487 595.045 268.832 591.405 267.276 588.681"
		stroke="currentColor" stroke-width="5" stroke-linecap="round" />
	<path
		d="M256.187 604.053C257.449 602.647 258.817 600.722 259.533 598.971C260.256 597.205 260.139 595.321 260.975 593.581C261.638 592.202 262.206 590.652 263.482 589.731C264.127 589.265 264.694 588.994 265.26 588.429"
		stroke="currentColor" stroke-width="5" stroke-linecap="round" />
	<path d="M262.992 605.818C263.445 602.702 263.127 599.528 264 596.465C264.432 594.947 265.013 593.454 265.512 591.957"
		stroke="currentColor" stroke-width="5" stroke-linecap="round" />
	<path
		d="M255.179 605.818C253.811 606.697 251.363 606.546 249.817 606.546C248.1 606.546 246.549 606.312 244.847 606.574"
		stroke="currentColor" stroke-width="5" stroke-linecap="round" />
	<path
		d="M151.854 582.38C153.445 581.168 154.471 578.558 155.27 576.78C156.283 574.528 156.41 572.231 156.39 569.808C156.37 567.271 155.989 564.782 155.634 562.275C155.188 559.124 155.789 555.972 155.9 552.811C155.996 550.062 156.504 547.402 157.132 544.732C157.725 542.214 158.069 540.085 159.792 538.068C161.287 536.319 163.286 535.172 165.603 535.03C168.189 534.871 170.49 534.275 173.023 533.742"
		stroke="currentColor" stroke-width="5" stroke-linecap="round" />
	<path
		d="M177.559 573.056C176.769 572.463 176.687 570.008 176.565 569.164C176.255 567.018 175.743 564.889 175.599 562.723C175.438 560.305 175.316 557.877 175.179 555.457C175.025 552.735 175.456 550.585 176.131 547.967C176.682 545.826 176.792 543.409 177.573 541.344C177.932 540.395 179.659 540.561 180.415 540.714C181.801 540.994 182.845 541.493 184.307 541.414C185.267 541.363 186.191 541.208 187.136 541.05"
		stroke="currentColor" stroke-width="5" stroke-linecap="round" />
	<path
		d="M230.23 605.061C227.139 604.767 224.007 602.68 221.045 601.785C217.553 600.73 214.171 600.292 210.559 600.007C205.718 599.625 201.981 598.196 197.776 595.849C193.282 593.341 190.194 588.226 187.304 584.116C185.727 581.875 184.257 579.594 183.131 577.088C182.255 575.136 181.518 573.161 180.415 571.32C177.765 566.891 177.811 562.576 177.811 557.543C177.811 553.542 178.318 549.442 179.589 545.628C180.224 543.724 181.002 542.069 183.103 541.806"
		stroke="currentColor" stroke-width="5" stroke-linecap="round" />
	<path d="M180.583 548.107C181.081 546.612 183.133 544.415 184.616 543.822" stroke="currentColor" stroke-width="5"
		stroke-linecap="round" />
	<path d="M228.718 603.297C227.228 602.021 225.027 600.968 223.174 600.273" stroke="currentColor" stroke-width="5"
		stroke-linecap="round" />
	<path
		d="M208.053 597.501C204.046 596.52 200.162 593.766 196.894 591.327C192.811 588.279 190.266 583.577 187.57 579.37C184.922 575.238 181.933 570.492 180.751 565.663C179.804 561.79 179.61 557.6 179.071 553.651"
		stroke="currentColor" stroke-width="5" stroke-linecap="round" />
	<path
		d="M190.16 579.86C188.402 577.338 187.778 574.161 186.268 571.488C185.765 570.598 185.212 569.086 184.363 568.52"
		stroke="currentColor" stroke-width="5" stroke-linecap="round" />
	<path d="M143.537 584.144C145.496 583.988 147.361 583.136 149.334 583.136" stroke="currentColor" stroke-width="5"
		stroke-linecap="round" />
	<path d="M145.049 581.876C143.975 581.323 143.669 581.24 144.545 580.364" stroke="currentColor" stroke-width="5"
		stroke-linecap="round" />
	<path d="M152.61 580.112C153.522 576.462 152.61 573.358 152.61 569.668C152.61 566.246 152.784 563.208 153.87 559.951"
		stroke="currentColor" stroke-width="5" stroke-linecap="round" />
	<path
		d="M155.13 546.594C154.1 546.555 154.006 546.156 153.73 545.18C153.412 544.059 152.796 543.119 152.414 542.03C151.553 539.58 154.346 538.045 155.746 536.486C156.7 535.424 157.437 534.122 158.588 533.252C159.991 532.192 161.782 531.632 163.39 530.97C166.602 529.647 170.406 528.211 173.919 528.001C176.432 527.852 179.68 530.33 180.835 532.426C181.542 533.708 183.789 538.3 180.499 536.29C175.819 533.43 171.278 530.064 165.911 533.154C162.153 535.317 158.889 538.454 155.634 541.302"
		stroke="currentColor" stroke-width="5" stroke-linecap="round" />
	<path
		d="M182.599 534.498C185.898 534.718 187.812 537.285 191.294 536.374C193.409 535.821 195.296 534.75 197.328 533.966C199.339 533.19 200.744 531.322 202.368 529.962C203.936 528.649 205.067 527.781 207.129 527.301C208.406 527.004 209.711 527.016 210.993 526.769C212.58 526.465 214.019 525.772 215.529 525.229C220.305 523.513 225.687 522.905 230.734 522.905"
		stroke="currentColor" stroke-width="5" stroke-linecap="round" />
	<path d="M205.281 530.97C207.308 529.811 209.293 528.581 211.329 527.441" stroke="currentColor" stroke-width="5"
		stroke-linecap="round" />
	<path d="M215.613 534.246C213.821 533.907 212.173 532.816 210.573 531.978" stroke="currentColor" stroke-width="5"
		stroke-linecap="round" />
	<path
		d="M225.694 560.203C222.471 557.911 219.528 555.198 216.579 552.573C214.021 550.295 211.454 548.111 209.257 545.474C206.624 542.315 203.156 539.933 200.24 537.018"
		stroke="currentColor" stroke-width="5" stroke-linecap="round" />
	<path d="M141.269 566.251L140.765 564.487" stroke="currentColor" stroke-width="5" stroke-linecap="round" />
	<path d="M141.269 570.284V568.772" stroke="currentColor" stroke-width="5" stroke-linecap="round" />
	<path d="M140.261 562.723V560.707" stroke="currentColor" stroke-width="5" stroke-linecap="round" />
	<path
		d="M215.109 531.978C219.341 531.131 223.092 528.46 227.178 527.021C229.052 526.361 231.024 525.695 232.582 524.417C233.909 523.328 234.241 521.759 234.64 520.161C235.489 516.765 236.209 513.302 237.958 510.221C239.411 507.661 241.331 506.452 243.587 504.76"
		stroke="currentColor" stroke-width="5" stroke-linecap="round" />
	<path
		d="M205.785 536.01C207.528 537.027 208.594 539.958 209.663 541.568C211.151 543.809 212.817 545.423 214.913 547.07C216.782 548.539 218.62 549.8 220.149 551.635"
		stroke="currentColor" stroke-width="5" stroke-linecap="round" />
	<path d="M194.948 539.79C200.164 540.599 205.164 542.326 209.313 545.586" stroke="currentColor" stroke-width="5"
		stroke-linecap="round" />
	<path d="M198.476 540.294C200.631 543.336 204.69 545.627 208.053 547.098" stroke="currentColor" stroke-width="5"
		stroke-linecap="round" />
	<path d="M211.833 550.627C214.478 553.46 215.972 556.577 219.505 558.509C221.61 559.66 224.191 560.112 226.45 560.959"
		stroke="currentColor" stroke-width="5" stroke-linecap="round" />
	<path d="M221.913 553.651C223.79 554.526 224.786 557.47 225.694 559.195" stroke="currentColor" stroke-width="5"
		stroke-linecap="round" />
	<path d="M207.297 533.49C209.676 537.228 211.343 541.9 215.109 544.536C216.245 545.331 217.42 546.49 218.637 547.098"
		stroke="currentColor" stroke-width="5" stroke-linecap="round" />
	<path d="M211.329 535.254C214.14 537.331 215.303 540.857 217.881 543.066" stroke="currentColor" stroke-width="5"
		stroke-linecap="round" />
	<path d="M226.954 561.715C227.268 562.001 227.617 562.225 227.962 562.471" stroke="currentColor" stroke-width="5"
		stroke-linecap="round" />
	<path d="M224.938 562.219C224.463 562.238 224.123 562.344 223.678 562.471" stroke="currentColor" stroke-width="5"
		stroke-linecap="round" />
	<path
		d="M221.913 533.238C226.246 533.049 230.589 532.288 233.058 528.352C235.191 524.951 236.724 521.271 237.538 517.361"
		stroke="currentColor" stroke-width="5" stroke-linecap="round" />
	<path d="M225.946 530.214C227.485 530.214 228.975 530.162 230.482 529.962" stroke="currentColor" stroke-width="5"
		stroke-linecap="round" />
	<path
		d="M227.206 520.889C227.558 518.89 228.747 516.896 229.642 515.093C230.781 512.796 231.485 510.515 232.134 508.036C232.586 506.312 233.742 505.549 235.312 504.872C237.16 504.076 238.688 502.91 240.562 502.24"
		stroke="currentColor" stroke-width="5" stroke-linecap="round" />
	<path d="M241.066 502.24H243.335" stroke="currentColor" stroke-width="5" stroke-linecap="round" />
	<path d="M225.694 520.133C225.739 519.033 225.986 518.288 226.45 517.361" stroke="currentColor" stroke-width="5"
		stroke-linecap="round" />
	<path d="M229.978 508.54C229.632 508.425 229.62 508.075 229.474 507.784" stroke="currentColor" stroke-width="5"
		stroke-linecap="round" />
	<path
		d="M226.198 535.002C230.329 535.002 232.993 534.316 235.382 530.816C237.22 528.123 238.042 525.608 238.042 522.401"
		stroke="currentColor" stroke-width="5" stroke-linecap="round" />
	<path
		d="M229.978 537.018C231.651 537.018 233.332 536.929 234.906 536.29C236.947 535.461 237.474 534.204 238.196 532.342C239.09 530.036 239.581 528.152 239.806 525.677"
		stroke="currentColor" stroke-width="5" stroke-linecap="round" />
	<path d="M236.026 538.278C240.756 537.418 241.066 531.987 241.066 528.198" stroke="currentColor" stroke-width="5"
		stroke-linecap="round" />
	<path d="M240.562 537.522C241.803 534.963 243.705 533.356 244.091 530.466" stroke="currentColor" stroke-width="5"
		stroke-linecap="round" />
	<path
		d="M283.153 670.837C288.677 666.891 296.464 666.805 303.02 666.805C307.308 666.805 310.796 667.842 314.906 668.821"
		stroke="currentColor" stroke-width="5" stroke-linecap="round" />
	<path
		d="M281.137 674.365C283.591 673.288 286.266 672.644 288.809 671.817C291.214 671.035 293.786 669.643 296.327 669.353C300.408 668.886 304.497 668.569 308.606 668.569"
		stroke="currentColor" stroke-width="5" stroke-linecap="round" />
	<path
		d="M291.469 672.853C294.077 672.552 296.654 672.009 299.281 671.859C300.04 671.816 300.598 671.641 301.298 671.341"
		stroke="currentColor" stroke-width="5" stroke-linecap="round" />
	<path
		d="M312.134 670.585C318.407 671.077 323.721 675.763 328.613 679.237C330.576 680.632 333.174 680.93 335.039 682.346C336.132 683.175 336.075 684.733 336.075 685.958"
		stroke="currentColor" stroke-width="5" stroke-linecap="round" />
	<path
		d="M312.386 671.089C314.506 671.619 316.324 672.921 318.574 673.105C320.804 673.288 321.487 675.476 322.453 677.151C323.437 678.859 325.527 680.103 326.961 681.449C328.77 683.148 330.935 683.97 333.387 684.138C335.613 684.289 337.137 683.45 339.156 682.71C343.37 681.164 348.519 681.421 352.96 681.421"
		stroke="currentColor" stroke-width="5" stroke-linecap="round" />
	<path d="M323.727 680.917C324.776 681.671 325.87 682.316 327.003 682.934" stroke="currentColor" stroke-width="5"
		stroke-linecap="round" />
	<path d="M310.622 671.341C311.787 671.7 312.492 673.203 313.142 674.113" stroke="currentColor" stroke-width="5"
		stroke-linecap="round" />
	<path
		d="M330.531 660.504C333.552 660.504 336.514 660.751 339.45 661.512C341.425 662.025 343.08 662.661 345.12 662.828C347.325 663.009 349.501 663.781 351.7 663.781"
		stroke="currentColor" stroke-width="5" stroke-linecap="round" />
	<path
		d="M314.15 647.904C319.09 650.051 322.859 654.269 327.605 656.682C330.504 658.156 333.77 658.369 336.831 659.244"
		stroke="currentColor" stroke-width="5" stroke-linecap="round" />
	<path
		d="M318.434 648.66C320.752 648.87 322.774 650.577 324.539 651.936C327.39 654.132 330.231 656.144 333.527 657.62C335.835 658.654 338.266 659.876 340.752 660.434C342.532 660.835 344.374 660.729 346.184 660.77C347.524 660.801 348.849 661.008 350.188 661.008"
		stroke="currentColor" stroke-width="5" stroke-linecap="round" />
	<path d="M331.287 663.781H345.652" stroke="currentColor" stroke-width="5" stroke-linecap="round" />
	<path
		d="M327.759 666.049C329.344 666.346 330.74 667.405 332.099 668.205C334.207 669.445 336.17 670.813 338.189 672.181C339.527 673.087 341.884 673.301 343.44 673.497C345.917 673.809 348.274 674.067 350.72 674.617C355.279 675.643 360.522 676.548 365.197 676.325C367.617 676.21 370.185 676.359 372.575 675.975C373.63 675.806 374.565 675.373 375.641 675.373"
		stroke="currentColor" stroke-width="5" stroke-linecap="round" />
	<path d="M335.823 684.446C339.291 684.345 342.458 683.599 345.82 682.934C347 682.7 348.361 682.713 349.432 682.177"
		stroke="currentColor" stroke-width="5" stroke-linecap="round" />
	<path d="M354.472 680.665C358.16 681.935 361.337 682.43 365.197 682.43C368.68 682.43 371.69 679.64 374.885 678.397"
		stroke="currentColor" stroke-width="5" stroke-linecap="round" />
	<path d="M335.823 169.331C337.737 164.712 339.676 160.633 343.384 157.234" stroke="currentColor" stroke-width="5"
		stroke-linecap="round" />
	<path d="M335.319 172.607C338.079 169.551 339.769 165.778 341.872 162.274" stroke="currentColor" stroke-width="5"
		stroke-linecap="round" />
	<path
		d="M342.124 150.934C343.794 151.101 345.224 152.223 346.968 152.39C348.021 152.491 349.139 152.698 350.188 152.698"
		stroke="currentColor" stroke-width="5" stroke-linecap="round" />
	<path d="M344.392 157.234C345.755 156.701 346.566 155.139 347.92 154.462" stroke="currentColor" stroke-width="5"
		stroke-linecap="round" />
	<path
		d="M351.196 216.709C348.469 212.702 345.911 208.759 342.936 204.921C341.752 203.394 340.566 201.835 339.856 200.02C339.097 198.082 339.133 196.081 338.946 194.042C338.566 189.909 338.073 185.95 338.96 181.82C339.241 180.509 339.641 177.454 340.864 176.639"
		stroke="currentColor" stroke-width="5" stroke-linecap="round" />
	<path d="M350.44 212.677C342.926 201.824 340.136 188.212 343.636 175.379" stroke="currentColor" stroke-width="5"
		stroke-linecap="round" />
	<path d="M350.944 211.165C349.101 207.13 347.98 202.837 346.912 198.564" stroke="currentColor" stroke-width="5"
		stroke-linecap="round" />
	<path d="M351.196 209.149C351.749 205.896 351.657 203.12 350.44 200.076" stroke="currentColor" stroke-width="5"
		stroke-linecap="round" />
	<path
		d="M377.154 251.739C377.087 247.63 376.054 244.533 374.017 240.959C372.288 237.925 370.275 234.905 368.137 232.138C366.488 230.004 363.95 228.537 362.145 226.482C360.762 224.909 360.292 222.941 358.505 221.75"
		stroke="currentColor" stroke-width="5" stroke-linecap="round" />
	<path d="M362.033 221.246C362.351 221.989 361.629 223.213 361.529 224.018" stroke="currentColor" stroke-width="5"
		stroke-linecap="round" />
	<path d="M362.537 225.026C362.832 225.659 362.581 226.379 362.537 227.042" stroke="currentColor" stroke-width="5"
		stroke-linecap="round" />
	<path
		d="M343.636 183.444C345.141 182.315 346.712 182.657 348.41 182.94C349.025 183.042 350.042 183.045 350.44 183.444"
		stroke="currentColor" stroke-width="5" stroke-linecap="round" />
	<path d="M346.156 184.956C345.072 186.691 344.469 188.561 343.888 190.5" stroke="currentColor" stroke-width="5"
		stroke-linecap="round" />
	<path d="M344.14 181.931C344.793 180.606 345.438 179.297 345.904 177.899" stroke="currentColor" stroke-width="5"
		stroke-linecap="round" />
	<path d="M370.601 233.342C378.295 234.213 382.819 245.083 381.438 251.991" stroke="currentColor" stroke-width="5"
		stroke-linecap="round" />
	<path
		d="M373.625 232.586C378.279 233.291 382.09 237.788 383.216 242.121C383.803 244.381 384.434 246.684 384.434 249.037C384.434 250.196 384.21 251.336 384.21 252.495"
		stroke="currentColor" stroke-width="5" stroke-linecap="round" />
	<path d="M378.162 233.342C384.395 233.822 386.478 240.4 386.478 245.691" stroke="currentColor" stroke-width="5"
		stroke-linecap="round" />
	<path d="M385.47 235.862C387.568 236.387 387.738 240.14 387.738 241.911" stroke="currentColor" stroke-width="5"
		stroke-linecap="round" />
	<path d="M298.273 72.8098C296.738 73.5183 296.563 75.7798 295.501 76.842" stroke="currentColor" stroke-width="5"
		stroke-linecap="round" />
	<path
		d="M295.501 77.346C295.433 77.7177 294.731 79.476 295.137 79.8241C296.134 80.6789 299.892 79.2445 300.976 78.9701C304.077 78.1844 306.941 76.7382 310.062 76.0299C311.205 75.7706 313.595 75.633 314.402 74.8259"
		stroke="currentColor" stroke-width="5" stroke-linecap="round" />
	<path d="M308.606 76.842C309.071 77.5145 308.94 78.1188 308.858 78.8582" stroke="currentColor" stroke-width="5"
		stroke-linecap="round" />
	<path
		d="M357.244 67.5176C358.374 67.4083 359.457 67.4756 360.591 67.4756C362.69 67.4756 364.42 66.9099 366.401 66.3135C368.362 65.7232 370.241 65.7844 372.253 65.7535C373.38 65.7361 370.483 66.0588 369.929 66.2435C368.817 66.6143 368.708 66.736 368.837 67.7696"
		stroke="currentColor" stroke-width="5" stroke-linecap="round" />
	<path d="M356.488 69.7856C358.474 69.4246 360.31 68.0185 362.033 67.0135" stroke="currentColor" stroke-width="5"
		stroke-linecap="round" />
	<path d="M390.006 71.5498C393.844 72.6607 397.796 72.2273 401.599 73.3138" stroke="currentColor" stroke-width="5"
		stroke-linecap="round" />
	<path d="M402.103 76.8421C405.898 78.2651 410.429 78.1021 414.451 78.1021" stroke="currentColor" stroke-width="5"
		stroke-linecap="round" />
	<path
		d="M318.182 80.6222C317.531 80.7152 319.04 82.4832 319.106 83.0023C319.276 84.3182 318.051 85.1167 317.174 85.7745C315.674 86.8996 314.313 87.6786 312.386 87.6786"
		stroke="currentColor" stroke-width="5" stroke-linecap="round" />
	<path
		d="M318.938 87.1746C321.784 86.8463 324.249 84.9587 326.779 83.7304C330.355 81.9941 333.736 79.9503 337.363 78.3121C340.387 76.9467 343.474 75.672 346.478 74.2659C349.378 72.9084 352.051 71.0045 354.976 69.7857"
		stroke="currentColor" stroke-width="5" stroke-linecap="round" />
	<path d="M315.914 88.4346H318.434" stroke="currentColor" stroke-width="5" stroke-linecap="round" />
	<path
		d="M330.531 82.8904C335.258 84.3742 339.831 84.2688 344.728 84.4584C348.638 84.6099 352.096 85.701 355.844 86.6426C359.947 87.6731 366.06 89.4706 367.717 93.8389C368.574 96.0983 368.189 98.9709 366.023 100.559C364.89 101.39 363.861 102.876 362.649 103.513C360.976 104.394 359.561 104.889 358.505 106.58"
		stroke="currentColor" stroke-width="5" stroke-linecap="round" />
	<path
		d="M323.979 87.9306C327.676 87.248 331.291 86.2225 335.081 86.2225C339.032 86.2225 342.773 87.3619 346.66 87.8746C350.852 88.4276 355.412 88.9592 359.345 90.5908C360.9 91.236 364.054 92.7296 364.427 94.553C365.054 97.6192 363.487 100.551 360.913 102.267C360.686 102.419 360.368 102.612 360.605 102.155C361.133 101.133 361.729 100.254 361.977 99.1032C362.319 97.5095 362.285 95.8525 362.285 94.2309"
		stroke="currentColor" stroke-width="5" stroke-linecap="round" />
	<path d="M332.043 88.4346C334.731 88.8285 337.402 88.9825 340.108 89.1907" stroke="currentColor" stroke-width="5"
		stroke-linecap="round" />
	<path d="M344.392 82.1343C343.498 78.8576 346.344 76.4396 348.676 74.5739" stroke="currentColor" stroke-width="5"
		stroke-linecap="round" />
	<path d="M339.1 82.1343C340.028 80.6486 340.65 78.9417 341.368 77.3461" stroke="currentColor" stroke-width="5"
		stroke-linecap="round" />
	<path
		d="M351.952 83.3944C354.587 83.3944 357.042 83.2882 359.625 82.9464C360.053 82.8896 361.025 83.1401 361.025 82.5264C361.025 82.0349 360.966 81.7787 360.521 81.6303"
		stroke="currentColor" stroke-width="5" stroke-linecap="round" />
	<path
		d="M360.017 84.6545C361.981 84.8056 364.653 86.2848 366.149 87.5246C368.168 89.1974 368.9 90.3254 369.341 92.9709"
		stroke="currentColor" stroke-width="5" stroke-linecap="round" />
	<path d="M361.277 106.328C361.346 109.295 361.901 110.798 364.553 112.124" stroke="currentColor" stroke-width="5"
		stroke-linecap="round" />
	<path
		d="M364.301 113.888C366.859 114.528 368.797 117.047 371.203 118.144C372.945 118.939 374.487 119.432 376.397 119.432"
		stroke="currentColor" stroke-width="5" stroke-linecap="round" />
	<path
		d="M426.296 79.3621C429.077 79.8919 431.987 80.8389 434.641 81.8263C436.297 82.4428 437.774 83.4725 439.401 84.1504"
		stroke="currentColor" stroke-width="5" stroke-linecap="round" />
	<path d="M428.564 82.3864C430.932 82.4286 433.316 82.5663 435.621 83.1424" stroke="currentColor" stroke-width="5"
		stroke-linecap="round" />
	<path
		d="M446.961 86.6705C450.14 86.3433 453.316 86.6125 456.51 86.2785C458.882 86.0305 461.206 85.967 463.566 85.6625C465.269 85.4428 467.056 85.2145 468.774 85.2145C469.433 85.2145 469.865 85.6143 470.482 85.7605C472.261 86.1818 474.416 86.0181 476.195 85.6625"
		stroke="currentColor" stroke-width="5" stroke-linecap="round" />
	<path d="M431.84 308.946L437.133 314.238" stroke="currentColor" stroke-width="5" stroke-linecap="round" />
	<path
		d="M438.141 314.994C440.242 314.844 442.277 314.575 444.399 314.7C447.521 314.885 449.9 316.115 452.771 317.109C456.171 318.285 459.768 319.336 463.342 319.783"
		stroke="currentColor" stroke-width="5" stroke-linecap="round" />
	<path
		d="M488.543 380.266C489.938 376.515 491.85 372.322 490.895 368.225C490.238 365.403 488.894 362.64 487.997 359.881C485.753 352.971 483.125 346.201 480.479 339.44"
		stroke="currentColor" stroke-width="5" stroke-linecap="round" />
	<path
		d="M389.754 254.259C392.477 254.259 394.967 254.644 397.497 255.715C399.356 256.503 401.49 257.364 403.069 258.655C404.165 259.552 404.828 261.062 405.659 262.184C407.736 264.987 409.602 267.547 411.301 270.626C412.997 273.698 414.64 276.88 416.874 279.601C418.806 281.955 421.21 283.854 423.132 286.209C427.143 291.123 429.082 296.831 430.888 302.786C432.638 308.556 436.238 311.394 441.669 313.482"
		stroke="currentColor" stroke-width="5" stroke-linecap="round" />
	<path
		d="M439.149 309.702C431.832 306.044 431.957 296.663 428.956 289.961C427.609 286.952 425.163 284.219 423.02 281.729C421.661 280.15 420.252 279.01 418.484 277.948"
		stroke="currentColor" stroke-width="5" stroke-linecap="round" />
	<path
		d="M432.092 296.597C433.29 295.999 432.747 293.251 432.554 292.313C432.06 289.902 430.884 288.281 429.446 286.377C428.283 284.836 427.152 283.27 425.848 281.841C424.468 280.328 422.807 279.436 422.264 277.444"
		stroke="currentColor" stroke-width="5" stroke-linecap="round" />
	<path
		d="M491.567 380.014C493.734 376.944 494.361 372.248 493.766 368.603C492.723 362.217 490.26 355.649 487.731 349.716C486.636 347.147 485.41 344.751 484.763 342.016C484.288 340.005 483.602 337.867 482.019 336.416C481.174 335.641 479.918 336.105 479.065 335.407C476.883 333.623 475.613 330.717 473.647 328.687C471.607 326.581 469.614 324.403 467.542 322.331C466.638 321.426 465.417 320.865 464.602 319.881C462.387 317.205 467.33 320.096 468.13 320.539C472.327 322.858 475.314 327.612 478.799 330.829C481.274 333.114 485.64 336.47 485.267 340.196"
		stroke="currentColor" stroke-width="5" stroke-linecap="round" />
	<path
		d="M425.036 451.838C428.891 446.055 434.653 441.35 441.473 439.881C450.279 437.984 459.428 438.114 468.354 437.081C470.916 436.784 472.81 435.4 475.215 434.701C476.611 434.294 478.083 434.11 479.429 433.539C480.512 433.079 481.401 432.216 482.369 431.564C484.471 430.149 486.552 429.19 489.103 428.96C492.326 428.671 494.242 427.209 497 425.628C502.556 422.443 506.92 417.782 510.188 412.299C511.751 409.678 513.113 406.764 513.171 403.661C513.203 401.914 513.025 400.116 512.079 398.607C511.235 397.262 510.79 396.344 510.412 394.771C509.406 390.578 506.908 387.114 503.58 384.41C501.811 382.973 499.876 381.836 497.896 380.728C496.981 380.216 494.97 379.466 494.368 378.502C494.131 378.124 494.643 377.419 494.844 377.158C495.598 376.172 496.467 376.93 497.308 377.41C499.846 378.858 502.415 379.871 504.168 382.282"
		stroke="currentColor" stroke-width="5" stroke-linecap="round" />
	<path
		d="M393.786 253.251C395.666 253.251 397.453 253.568 399.303 253.867C400.121 254 401.39 253.975 402.047 254.581C402.689 255.174 402.881 256.301 403.293 257.045C405.806 261.585 409.688 265.309 412.183 269.884"
		stroke="currentColor" stroke-width="5" stroke-linecap="round" />
	<path
		d="M492.828 361.365C492.949 359.048 493.499 356.755 493.066 354.434C492.463 351.21 490.662 348.295 489.313 345.348C487.856 342.165 486.53 338.941 484.763 335.912"
		stroke="currentColor" stroke-width="5" stroke-linecap="round" />
	<path
		d="M465.862 318.523C470.032 319.4 474.922 322.533 477.483 325.887C479.02 327.9 479.964 330.295 481.683 332.187C482.443 333.024 483.405 333.668 484.259 334.399"
		stroke="currentColor" stroke-width="5" stroke-linecap="round" />
	<path d="M469.642 319.279C472.458 320.064 477.369 320.952 478.211 324.319" stroke="currentColor" stroke-width="5"
		stroke-linecap="round" />
	<path
		d="M473.423 437.221C476.363 436.939 479.222 435.71 481.935 434.589C484.656 433.464 487.389 432.423 490.139 431.368C494.154 429.829 497.512 427.751 500.892 425.124C504.042 422.676 507.577 420.619 509.992 417.368C513.616 412.489 516.82 407.447 515.705 401.183C515.229 398.51 514.51 395.652 512.989 393.37"
		stroke="currentColor" stroke-width="5" stroke-linecap="round" />
	<path
		d="M426.044 452.342C429.825 449.459 432.837 445.711 436.741 442.989C440.913 440.08 445.226 439.89 450.153 440.133C455.269 440.385 461.368 441.61 466.114 439.237"
		stroke="currentColor" stroke-width="5" stroke-linecap="round" />
	<path
		d="M398.827 490.396C401.356 488.442 403.997 487.327 407.087 486.545C409.657 485.895 411.752 484.671 413.947 483.199C416.817 481.275 419.619 479.26 422.516 477.375C425.091 475.7 427.106 474.308 429.068 471.999"
		stroke="currentColor" stroke-width="5" stroke-linecap="round" />
	<path
		d="M402.607 490.9C406.543 489.343 409.968 486.845 413.583 484.683C415.438 483.574 417.314 482.448 419.282 481.547C420.856 480.826 422.548 480.39 424.098 479.615C425.168 479.08 425.54 477.795 426.548 477.291"
		stroke="currentColor" stroke-width="5" stroke-linecap="round" />
	<path
		d="M406.891 490.396C410.109 488.64 414.297 488.928 417.224 486.559C419.893 484.399 422.457 482.117 425.288 480.315"
		stroke="currentColor" stroke-width="5" stroke-linecap="round" />
	<path d="M415.46 490.144C417.418 488.128 420.394 487.008 422.012 484.851" stroke="currentColor" stroke-width="5"
		stroke-linecap="round" />
	<path d="M430.58 470.234C431.375 467.674 433.126 463.748 430.076 461.918" stroke="currentColor" stroke-width="5"
		stroke-linecap="round" />
	<path d="M433.1 467.21C434.242 466.673 433.818 463.92 433.856 462.926" stroke="currentColor" stroke-width="5"
		stroke-linecap="round" />
	<path
		d="M430.328 452.09C431.946 450.472 433.753 449.12 435.537 447.693C438.137 445.613 441.335 443.017 444.833 443.073C448.774 443.137 452.589 443.843 456.538 443.241C459.7 442.759 462.648 442.009 465.862 442.009"
		stroke="currentColor" stroke-width="5" stroke-linecap="round" />
	<path
		d="M433.1 453.35C437.125 451.183 440.427 446.994 444.945 445.761C446.204 445.418 447.679 445.711 448.935 445.789C452.257 445.996 455.616 446.139 458.932 445.761C461.094 445.515 462.964 444.804 464.854 443.773"
		stroke="currentColor" stroke-width="5" stroke-linecap="round" />
	<path
		d="M447.213 448.057C449.514 448.057 451.786 448.149 454.074 448.421C454.707 448.497 458.713 449.502 459.058 448.813"
		stroke="currentColor" stroke-width="5" stroke-linecap="round" />
	<path
		d="M439.149 453.854C439.746 453.854 440.481 453.578 439.597 453.014C438.64 452.403 437.839 453.158 437.021 453.546C436.252 453.91 438.588 452.835 439.429 452.706C440.174 452.591 440.918 452.594 441.669 452.594"
		stroke="currentColor" stroke-width="5" stroke-linecap="round" />
	<path d="M443.937 453.602C443.311 453.584 442.779 453.471 442.173 453.35" stroke="currentColor" stroke-width="5"
		stroke-linecap="round" />
	<path d="M274.332 503.5C276.651 498.496 275.34 493.176 275.34 487.875" stroke="currentColor" stroke-width="5"
		stroke-linecap="round" />
	<path d="M277.104 502.744C279.723 502.99 281.204 504.774 283.153 506.272" stroke="currentColor" stroke-width="5"
		stroke-linecap="round" />
	<path
		d="M310.118 505.516C307.582 504.351 304.245 503.662 301.802 505.25C299.39 506.818 296.285 507.385 293.485 507.784"
		stroke="currentColor" stroke-width="5" stroke-linecap="round" />
	<path
		d="M303.314 507.028C300.087 507.395 297.473 509.82 294.353 510.683C291.974 511.341 289.935 512.366 287.689 513.329"
		stroke="currentColor" stroke-width="5" stroke-linecap="round" />
	<path
		d="M292.729 512.069C293.74 512.574 294.983 512.971 295.879 513.651C296.752 514.313 297.309 515.329 298.161 516.031C298.985 516.709 299.945 517.003 300.864 517.501C303.064 518.695 303.594 521.832 305.582 523.157"
		stroke="currentColor" stroke-width="5" stroke-linecap="round" />
	<path
		d="M289.201 515.597C292.273 516.052 295.276 517.761 298.189 518.789C299.126 519.119 300.217 519.328 301.046 519.881"
		stroke="currentColor" stroke-width="5" stroke-linecap="round" />
	<path d="M298.777 514.337C299.048 512.374 299.818 510.52 300.038 508.54" stroke="currentColor" stroke-width="5"
		stroke-linecap="round" />
	<path
		d="M311.882 516.857C313.135 516.857 312.579 517.235 311.91 516.353C311.629 515.982 310.532 514.423 310.552 514.463C311.069 515.496 311.242 516.932 312.106 517.753C313.347 518.932 315.72 519.201 317.328 519.461C319.047 519.739 320.589 519.314 322.187 518.677C325.359 517.412 328.683 514.589 332.127 514.589C335.636 514.589 339.363 514.894 342.838 514.281C344.722 513.948 346.367 512.914 348.284 512.573C351.079 512.075 353.693 511.312 356.432 510.627C358.279 510.165 360.218 510.284 362.089 509.941C364.034 509.583 366.021 509.108 367.913 508.526C372.337 507.165 376.66 504.346 380.43 501.736"
		stroke="currentColor" stroke-width="5" stroke-linecap="round" />
	<path d="M349.684 514.085C356.208 514.9 363.084 512.013 369.089 509.801" stroke="currentColor" stroke-width="5"
		stroke-linecap="round" />
	<path d="M356.236 516.101C359.645 515.499 362.698 513.909 365.561 512.069" stroke="currentColor" stroke-width="5"
		stroke-linecap="round" />
	<path
		d="M481.487 436.465C483.911 434.837 486.269 433.645 489.215 433.385C492.931 433.056 495.678 432.049 498.918 430.178C503.26 427.672 505.631 422.84 509.46 419.636C513.547 416.216 518.178 412.738 519.163 407.287C519.678 404.437 519.775 401.107 518.029 398.663"
		stroke="currentColor" stroke-width="5" stroke-linecap="round" />
	<path d="M500.892 429.912C503.977 428.678 505.792 425.928 508.2 423.864" stroke="currentColor" stroke-width="5"
		stroke-linecap="round" />
	<path
		d="M512.989 419.328C515.278 418.031 519.068 416.021 519.933 413.364C520.386 411.972 520.79 410.62 521.305 409.247"
		stroke="currentColor" stroke-width="5" stroke-linecap="round" />
	<path
		d="M248.123 502.744C251.012 502.311 253.629 501.202 256.397 502.569C259.372 504.039 262.532 504.911 265.792 505.516C267.124 505.764 268.272 505.721 269.6 505.446C270.815 505.195 271.269 504.699 271.567 503.521C271.884 502.271 272.378 501.133 272.869 499.944C273.088 499.414 273.438 498.887 273.576 498.334"
		stroke="currentColor" stroke-width="5" stroke-linecap="round" />
	<path d="M250.517 499.846C251.673 499.396 252.385 498.838 253.667 498.838" stroke="currentColor" stroke-width="5"
		stroke-linecap="round" />
</svg>