<svg xmlns="http://www.w3.org/2000/svg" height="48" viewBox="0 96 960 960" width="48">
  <path
    fill="currentColor"
    d="M145.001 971.999v-52.692h100v-40.308h-60v-47.692h60v-39.308h-100v-52.692h116.684q14.672 0 25.34 10.668t10.668 25.178v45.693q0 15.234-10.668 25.54-10.668 10.305-25.178 10.305 14.51 0 25.178 10.594 10.668 10.593 10.668 26.252v41.616q0 15.659-10.668 26.252-10.668 10.594-25.34 10.594H145.001Zm0-280.153V588q0-14.509 10.594-25.178 10.593-10.668 26.252-10.668h63.154v-40.308h-100v-52.692h116.684q14.672 0 25.34 10.593 10.668 10.594 10.668 26.253v67q0 15.659-10.668 26.253-10.668 10.593-25.178 10.593h-64.154v39.308h100v52.692H145.001Zm60-280.153v-185h-60v-47.692h112.692v232.692h-52.692Zm184 435.614v-58.383h446.998v58.383H389.001Zm0-244.231v-58.383h446.998v58.383H389.001Zm0-244.23v-58.384h446.998v58.384H389.001Z" />
</svg>